<svg width="284" height="38" viewBox="0 0 284 38" fill="none" xmlns="http://www.w3.org/2000/svg">
<mask id="path-1-outside-1_0_1" maskUnits="userSpaceOnUse" x="35" y="-1" width="251" height="40" fill="black">
<rect fill="white" x="35" y="-1" width="251" height="40"/>
<path d="M59.65 2.5V23.35C59.65 24.75 59.65 25.85 59.5 27.8C59.15 33.65 55.55 37.7 47.85 37.7C40.7 37.7 36.9 33.5 36.7 26.8L36.65 24.9H42.15L42.25 26.8C42.5 31.5 44.65 33.5 48.35 33.5C52 33.5 53.8 31.2 54.1 27.45C54.15 26.4 54.15 25.2 54.15 23.6V2.5H59.65ZM81.168 37L80.668 33.15L79.318 36C77.518 37.25 75.218 37.7 72.718 37.7C68.018 37.7 64.168 35 64.168 30.05C64.168 24.15 68.868 20.95 78.918 20.95H80.618V20.3C80.618 19.3 80.618 18.4 80.518 17.4C80.368 15.25 79.018 13.75 75.868 13.75C72.668 13.75 71.018 15.55 70.718 18.85H65.218C65.568 13.05 69.918 9.75 75.968 9.75C82.818 9.75 85.518 12.65 85.968 17.15C86.068 18.25 86.118 19.65 86.118 20.9V30.25C86.118 32.25 86.218 34.05 86.618 37H81.168ZM74.718 33.7C78.168 33.7 80.618 31.35 80.618 27.05V24.6C74.168 24.1 69.968 25.55 69.968 29.6C69.968 32.4 71.818 33.7 74.718 33.7ZM103.964 9.75C110.664 9.75 114.914 13.8 115.564 19.65H110.014C109.214 15.6 107.064 13.75 103.814 13.75C99.9641 13.75 96.9141 16.8 96.9141 23.45C96.9141 30.65 99.9141 33.7 103.614 33.7C106.764 33.7 109.014 31.8 109.814 28.2H115.414C114.164 34.55 109.564 37.7 103.314 37.7C96.3641 37.7 91.1141 33.3 91.1141 23.85C91.1141 14.8 97.0141 9.75 103.964 9.75ZM128.161 26.1L125.811 28.7V37H120.311V0.249999H125.811V23.25L137.411 10.45H144.161L132.061 22.9L144.311 37H137.161L128.161 26.1ZM186.654 17.3V21.7H181.904V36.55C178.804 37.25 175.254 37.7 171.404 37.7C163.354 37.7 157.604 35.6 157.604 28.3C157.604 23.9 160.704 20.4 165.654 19.4C161.854 18.4 159.204 15.6 159.204 11.65C159.204 5.65 164.204 1.8 171.704 1.8C174.054 1.8 175.704 1.95 177.454 2.3V6.5C175.404 6.1 173.904 6 171.654 6C167.504 6 165.154 8.1 165.154 11.6C165.154 15.75 167.654 17.1 170.904 17.25C171.804 17.3 172.904 17.3 173.954 17.3H176.404V12.15H181.904V17.3H186.654ZM163.554 27.5C163.554 31.95 166.104 33.5 171.504 33.5C173.404 33.5 174.654 33.4 176.404 33.1V21.7H173.754C172.654 21.7 171.804 21.7 170.804 21.75C165.704 22.2 163.554 24.5 163.554 27.5ZM227.161 32.6V37H200.511V32.8L220.511 6.85H201.911V2.5H226.911V6.8L207.061 32.6H227.161ZM247.135 37L246.635 33.15L245.285 36C243.485 37.25 241.185 37.7 238.685 37.7C233.985 37.7 230.135 35 230.135 30.05C230.135 24.15 234.835 20.95 244.885 20.95H246.585V20.3C246.585 19.3 246.585 18.4 246.485 17.4C246.335 15.25 244.985 13.75 241.835 13.75C238.635 13.75 236.985 15.55 236.685 18.85H231.185C231.535 13.05 235.885 9.75 241.935 9.75C248.785 9.75 251.485 12.65 251.935 17.15C252.035 18.25 252.085 19.65 252.085 20.9V30.25C252.085 32.25 252.185 34.05 252.585 37H247.135ZM240.685 33.7C244.135 33.7 246.585 31.35 246.585 27.05V24.6C240.135 24.1 235.935 25.55 235.935 29.6C235.935 32.4 237.785 33.7 240.685 33.7ZM266.931 26.1L264.581 28.7V37H259.081V0.249999H264.581V23.25L276.181 10.45H282.931L270.831 22.9L283.081 37H275.931L266.931 26.1Z"/>
</mask>
<path d="M59.65 2.5V23.35C59.65 24.75 59.65 25.85 59.5 27.8C59.15 33.65 55.55 37.7 47.85 37.7C40.7 37.7 36.9 33.5 36.7 26.8L36.65 24.9H42.15L42.25 26.8C42.5 31.5 44.65 33.5 48.35 33.5C52 33.5 53.8 31.2 54.1 27.45C54.15 26.4 54.15 25.2 54.15 23.6V2.5H59.65ZM81.168 37L80.668 33.15L79.318 36C77.518 37.25 75.218 37.7 72.718 37.7C68.018 37.7 64.168 35 64.168 30.05C64.168 24.15 68.868 20.95 78.918 20.95H80.618V20.3C80.618 19.3 80.618 18.4 80.518 17.4C80.368 15.25 79.018 13.75 75.868 13.75C72.668 13.75 71.018 15.55 70.718 18.85H65.218C65.568 13.05 69.918 9.75 75.968 9.75C82.818 9.75 85.518 12.65 85.968 17.15C86.068 18.25 86.118 19.65 86.118 20.9V30.25C86.118 32.25 86.218 34.05 86.618 37H81.168ZM74.718 33.7C78.168 33.7 80.618 31.35 80.618 27.05V24.6C74.168 24.1 69.968 25.55 69.968 29.6C69.968 32.4 71.818 33.7 74.718 33.7ZM103.964 9.75C110.664 9.75 114.914 13.8 115.564 19.65H110.014C109.214 15.6 107.064 13.75 103.814 13.75C99.9641 13.75 96.9141 16.8 96.9141 23.45C96.9141 30.65 99.9141 33.7 103.614 33.7C106.764 33.7 109.014 31.8 109.814 28.2H115.414C114.164 34.55 109.564 37.7 103.314 37.7C96.3641 37.7 91.1141 33.3 91.1141 23.85C91.1141 14.8 97.0141 9.75 103.964 9.75ZM128.161 26.1L125.811 28.7V37H120.311V0.249999H125.811V23.25L137.411 10.45H144.161L132.061 22.9L144.311 37H137.161L128.161 26.1ZM186.654 17.3V21.7H181.904V36.55C178.804 37.25 175.254 37.7 171.404 37.7C163.354 37.7 157.604 35.6 157.604 28.3C157.604 23.9 160.704 20.4 165.654 19.4C161.854 18.4 159.204 15.6 159.204 11.65C159.204 5.65 164.204 1.8 171.704 1.8C174.054 1.8 175.704 1.95 177.454 2.3V6.5C175.404 6.1 173.904 6 171.654 6C167.504 6 165.154 8.1 165.154 11.6C165.154 15.75 167.654 17.1 170.904 17.25C171.804 17.3 172.904 17.3 173.954 17.3H176.404V12.15H181.904V17.3H186.654ZM163.554 27.5C163.554 31.95 166.104 33.5 171.504 33.5C173.404 33.5 174.654 33.4 176.404 33.1V21.7H173.754C172.654 21.7 171.804 21.7 170.804 21.75C165.704 22.2 163.554 24.5 163.554 27.5ZM227.161 32.6V37H200.511V32.8L220.511 6.85H201.911V2.5H226.911V6.8L207.061 32.6H227.161ZM247.135 37L246.635 33.15L245.285 36C243.485 37.25 241.185 37.7 238.685 37.7C233.985 37.7 230.135 35 230.135 30.05C230.135 24.15 234.835 20.95 244.885 20.95H246.585V20.3C246.585 19.3 246.585 18.4 246.485 17.4C246.335 15.25 244.985 13.75 241.835 13.75C238.635 13.75 236.985 15.55 236.685 18.85H231.185C231.535 13.05 235.885 9.75 241.935 9.75C248.785 9.75 251.485 12.65 251.935 17.15C252.035 18.25 252.085 19.65 252.085 20.9V30.25C252.085 32.25 252.185 34.05 252.585 37H247.135ZM240.685 33.7C244.135 33.7 246.585 31.35 246.585 27.05V24.6C240.135 24.1 235.935 25.55 235.935 29.6C235.935 32.4 237.785 33.7 240.685 33.7ZM266.931 26.1L264.581 28.7V37H259.081V0.249999H264.581V23.25L276.181 10.45H282.931L270.831 22.9L283.081 37H275.931L266.931 26.1Z" fill="#E36D51"/>
<path d="M59.65 2.5H60.65V1.5H59.65V2.5ZM59.5 27.8L58.5029 27.7233L58.5023 27.7318L58.5018 27.7403L59.5 27.8ZM36.7 26.8L35.7003 26.8263L35.7004 26.8298L36.7 26.8ZM36.65 24.9V23.9H35.6233L35.6503 24.9263L36.65 24.9ZM42.15 24.9L43.1486 24.8474L43.0988 23.9H42.15V24.9ZM42.25 26.8L41.2514 26.8526L41.2514 26.8531L42.25 26.8ZM54.1 27.45L55.0968 27.5297L55.0981 27.5137L55.0989 27.4976L54.1 27.45ZM54.15 2.5V1.5H53.15V2.5H54.15ZM58.65 2.5V23.35H60.65V2.5H58.65ZM58.65 23.35C58.65 24.7418 58.65 25.8117 58.5029 27.7233L60.4971 27.8767C60.65 25.8883 60.65 24.7582 60.65 23.35H58.65ZM58.5018 27.7403C58.3382 30.4752 57.4249 32.6795 55.7563 34.2059C54.085 35.7348 51.5284 36.7 47.85 36.7V38.7C51.8716 38.7 54.965 37.6402 57.1062 35.6816C59.2501 33.7205 60.3118 30.9748 60.4982 27.8597L58.5018 27.7403ZM47.85 36.7C44.4734 36.7 42.017 35.713 40.3794 34.0589C38.7356 32.3986 37.7943 29.9425 37.6996 26.7702L35.7004 26.8298C35.8057 30.3575 36.8644 33.3514 38.9581 35.4661C41.058 37.587 44.0766 38.7 47.85 38.7V36.7ZM37.6997 26.7737L37.6497 24.8737L35.6503 24.9263L35.7003 26.8263L37.6997 26.7737ZM36.65 25.9H42.15V23.9H36.65V25.9ZM41.1514 24.9526L41.2514 26.8526L43.2486 26.7474L43.1486 24.8474L41.1514 24.9526ZM41.2514 26.8531C41.3831 29.3287 42.0225 31.2738 43.2806 32.6006C44.5571 33.9467 46.3201 34.5 48.35 34.5V32.5C46.6799 32.5 45.5179 32.0533 44.7319 31.2244C43.9275 30.3762 43.3669 28.9713 43.2486 26.7469L41.2514 26.8531ZM48.35 34.5C50.4 34.5 52.0542 33.8446 53.223 32.5519C54.3672 31.2865 54.9367 29.5307 55.0968 27.5297L53.1032 27.3703C52.9633 29.1193 52.4828 30.3885 51.7395 31.2106C51.0208 32.0054 49.95 32.5 48.35 32.5V34.5ZM55.0989 27.4976C55.1502 26.4186 55.15 25.1919 55.15 23.6H53.15C53.15 25.2081 53.1498 26.3814 53.1011 27.4024L55.0989 27.4976ZM55.15 23.6V2.5H53.15V23.6H55.15ZM54.15 3.5H59.65V1.5H54.15V3.5ZM81.168 37L80.1763 37.1288L80.2894 38H81.168V37ZM80.668 33.15L81.6596 33.0212L81.2213 29.6459L79.7642 32.7219L80.668 33.15ZM79.318 36L79.8884 36.8214L80.1075 36.6692L80.2217 36.4281L79.318 36ZM80.618 20.95V21.95H81.618V20.95H80.618ZM80.518 17.4L79.5204 17.4696L79.5214 17.4846L79.5229 17.4995L80.518 17.4ZM70.718 18.85V19.85H71.6312L71.7139 18.9405L70.718 18.85ZM65.218 18.85L64.2198 18.7898L64.1558 19.85H65.218V18.85ZM85.968 17.15L86.9639 17.0595L86.963 17.0505L85.968 17.15ZM86.618 37V38H87.7627L87.6089 36.8656L86.618 37ZM80.618 24.6H81.618V23.6745L80.6953 23.603L80.618 24.6ZM82.1596 36.8712L81.6596 33.0212L79.6763 33.2788L80.1763 37.1288L82.1596 36.8712ZM79.7642 32.7219L78.4142 35.5719L80.2217 36.4281L81.5717 33.5781L79.7642 32.7219ZM78.7476 35.1786C77.1832 36.265 75.1167 36.7 72.718 36.7V38.7C75.3192 38.7 77.8528 38.235 79.8884 36.8214L78.7476 35.1786ZM72.718 36.7C70.5502 36.7 68.6552 36.077 67.3213 34.9635C66.0084 33.8677 65.168 32.2411 65.168 30.05H63.168C63.168 32.8089 64.2526 35.0073 66.0397 36.499C67.8057 37.973 70.1858 38.7 72.718 38.7V36.7ZM65.168 30.05C65.168 27.4169 66.1886 25.4734 68.3087 24.1327C70.5048 22.7439 73.9674 21.95 78.918 21.95V19.95C73.8186 19.95 69.9061 20.7561 67.2397 22.4423C64.4973 24.1766 63.168 26.7831 63.168 30.05H65.168ZM78.918 21.95H80.618V19.95H78.918V21.95ZM81.618 20.95V20.3H79.618V20.95H81.618ZM81.618 20.3C81.618 19.3056 81.6187 18.3574 81.513 17.3005L79.5229 17.4995C79.6172 18.4426 79.618 19.2944 79.618 20.3H81.618ZM81.5155 17.3304C81.427 16.0607 80.9712 14.8699 79.9693 14.0099C78.9795 13.1603 77.5915 12.75 75.868 12.75V14.75C77.2944 14.75 78.1565 15.0896 78.6667 15.5276C79.1648 15.9551 79.459 16.5893 79.5204 17.4696L81.5155 17.3304ZM75.868 12.75C74.0759 12.75 72.5783 13.2595 71.4932 14.3606C70.4242 15.4453 69.8843 16.9746 69.7221 18.7595L71.7139 18.9405C71.8516 17.4254 72.2868 16.4047 72.9177 15.7644C73.5326 15.1405 74.4601 14.75 75.868 14.75V12.75ZM70.718 17.85H65.218V19.85H70.718V17.85ZM66.2162 18.9102C66.3758 16.2644 67.4352 14.2568 69.0901 12.8978C70.76 11.5265 73.1189 10.75 75.968 10.75V8.75C72.7671 8.75 69.9259 9.62353 67.8208 11.3522C65.7007 13.0932 64.4101 15.6356 64.2198 18.7898L66.2162 18.9102ZM75.968 10.75C79.2689 10.75 81.3962 11.4509 82.7381 12.5392C84.0591 13.6106 84.7658 15.1778 84.9729 17.2495L86.963 17.0505C86.7202 14.6222 85.8518 12.4894 83.9979 10.9858C82.1647 9.49912 79.517 8.75 75.968 8.75V10.75ZM84.9721 17.2405C85.0686 18.3024 85.118 19.6709 85.118 20.9H87.118C87.118 19.6291 87.0673 18.1976 86.9639 17.0595L84.9721 17.2405ZM85.118 20.9V30.25H87.118V20.9H85.118ZM85.118 30.25C85.118 32.2984 85.2215 34.1434 85.627 37.1344L87.6089 36.8656C87.2145 33.9566 87.118 32.2016 87.118 30.25H85.118ZM86.618 36H81.168V38H86.618V36ZM74.718 34.7C76.6776 34.7 78.4341 34.0265 79.6948 32.6676C80.9496 31.3152 81.618 29.3875 81.618 27.05H79.618C79.618 29.0125 79.0613 30.4098 78.2286 31.3074C77.4019 32.1985 76.2084 32.7 74.718 32.7V34.7ZM81.618 27.05V24.6H79.618V27.05H81.618ZM80.6953 23.603C77.4124 23.3485 74.5551 23.5734 72.4758 24.4765C71.4215 24.9345 70.5326 25.5821 69.9092 26.4615C69.2808 27.348 68.968 28.4059 68.968 29.6H70.968C70.968 28.7691 71.1801 28.127 71.5408 27.6181C71.9065 27.1023 72.4707 26.6593 73.2726 26.311C74.9058 25.6016 77.3736 25.3515 80.5407 25.597L80.6953 23.603ZM68.968 29.6C68.968 31.2364 69.52 32.5721 70.6222 33.474C71.6908 34.3483 73.1379 34.7 74.718 34.7V32.7C73.398 32.7 72.4701 32.4017 71.8887 31.926C71.3409 31.4779 70.968 30.7636 70.968 29.6H68.968ZM115.564 19.65V20.65H116.681L116.558 19.5396L115.564 19.65ZM110.014 19.65L109.033 19.8438L109.192 20.65H110.014V19.65ZM109.814 28.2V27.2H109.012L108.838 27.9831L109.814 28.2ZM115.414 28.2L116.395 28.3931L116.63 27.2H115.414V28.2ZM103.964 10.75C107.108 10.75 109.6 11.6969 111.372 13.2569C113.145 14.8172 114.269 17.0528 114.57 19.7604L116.558 19.5396C116.209 16.3972 114.883 13.6828 112.693 11.7556C110.504 9.82812 107.52 8.75 103.964 8.75V10.75ZM115.564 18.65H110.014V20.65H115.564V18.65ZM110.995 19.4562C110.57 17.3021 109.761 15.6064 108.513 14.4483C107.249 13.2753 105.639 12.75 103.814 12.75V14.75C105.239 14.75 106.329 15.1497 107.153 15.9142C107.992 16.6936 108.659 17.9479 109.033 19.8438L110.995 19.4562ZM103.814 12.75C101.602 12.75 99.5776 13.6386 98.132 15.491C96.7071 17.3169 95.9141 19.986 95.9141 23.45H97.9141C97.9141 20.264 98.6461 18.0831 99.7087 16.7215C100.751 15.3864 102.176 14.75 103.814 14.75V12.75ZM95.9141 23.45C95.9141 27.1706 96.6866 29.9693 98.0686 31.8643C99.4772 33.7957 101.458 34.7 103.614 34.7V32.7C102.07 32.7 100.701 32.0793 99.6845 30.6857C98.6416 29.2557 97.9141 26.9294 97.9141 23.45H95.9141ZM103.614 34.7C105.4 34.7 106.993 34.1565 108.254 33.0523C109.507 31.9553 110.356 30.3719 110.79 28.4169L108.838 27.9831C108.472 29.6281 107.796 30.7947 106.936 31.5477C106.085 32.2935 104.978 32.7 103.614 32.7V34.7ZM109.814 29.2H115.414V27.2H109.814V29.2ZM114.433 28.0069C113.849 30.9745 112.502 33.1204 110.635 34.5341C108.759 35.955 106.274 36.7 103.314 36.7V38.7C106.604 38.7 109.544 37.87 111.843 36.1284C114.152 34.3796 115.729 31.7755 116.395 28.3931L114.433 28.0069ZM103.314 36.7C100.052 36.7 97.2852 35.6719 95.3306 33.6277C93.3732 31.5805 92.1141 28.3927 92.1141 23.85H90.1141C90.1141 28.7573 91.48 32.4945 93.885 35.0098C96.2929 37.5281 99.6263 38.7 103.314 38.7V36.7ZM92.1141 23.85C92.1141 19.5492 93.5112 16.2876 95.6473 14.1059C97.7871 11.9204 100.734 10.75 103.964 10.75V8.75C100.244 8.75 96.766 10.1046 94.2183 12.7066C91.667 15.3124 90.1141 19.1008 90.1141 23.85H92.1141ZM128.161 26.1L128.932 25.4633L128.196 24.5708L127.419 25.4295L128.161 26.1ZM125.811 28.7L125.069 28.0295L124.811 28.315V28.7H125.811ZM125.811 37V38H126.811V37H125.811ZM120.311 37H119.311V38H120.311V37ZM120.311 0.249999V-0.750001H119.311V0.249999H120.311ZM125.811 0.249999H126.811V-0.750001H125.811V0.249999ZM125.811 23.25H124.811V25.8426L126.552 23.9215L125.811 23.25ZM137.411 10.45V9.45H136.968L136.67 9.77848L137.411 10.45ZM144.161 10.45L144.878 11.147L146.528 9.45H144.161V10.45ZM132.061 22.9L131.344 22.203L130.704 22.8621L131.306 23.5558L132.061 22.9ZM144.311 37V38H146.505L145.066 36.3442L144.311 37ZM137.161 37L136.39 37.6367L136.69 38H137.161V37ZM127.419 25.4295L125.069 28.0295L126.553 29.3705L128.903 26.7705L127.419 25.4295ZM124.811 28.7V37H126.811V28.7H124.811ZM125.811 36H120.311V38H125.811V36ZM121.311 37V0.249999H119.311V37H121.311ZM120.311 1.25H125.811V-0.750001H120.311V1.25ZM124.811 0.249999V23.25H126.811V0.249999H124.811ZM126.552 23.9215L138.152 11.1215L136.67 9.77848L125.07 22.5785L126.552 23.9215ZM137.411 11.45H144.161V9.45H137.411V11.45ZM143.444 9.75304L131.344 22.203L132.778 23.597L144.878 11.147L143.444 9.75304ZM131.306 23.5558L143.556 37.6558L145.066 36.3442L132.816 22.2442L131.306 23.5558ZM144.311 36H137.161V38H144.311V36ZM137.932 36.3633L128.932 25.4633L127.39 26.7367L136.39 37.6367L137.932 36.3633ZM186.654 17.3H187.654V16.3H186.654V17.3ZM186.654 21.7V22.7H187.654V21.7H186.654ZM181.904 21.7V20.7H180.904V21.7H181.904ZM181.904 36.55L182.125 37.5254L182.904 37.3494V36.55H181.904ZM165.654 19.4L165.852 20.3802L165.909 18.4329L165.654 19.4ZM177.454 2.3H178.454V1.4802L177.65 1.31942L177.454 2.3ZM177.454 6.5L177.263 7.48149L178.454 7.71398V6.5H177.454ZM170.904 17.25L170.96 16.2515L170.95 16.2511L170.904 17.25ZM176.404 17.3V18.3H177.404V17.3H176.404ZM176.404 12.15V11.15H175.404V12.15H176.404ZM181.904 12.15H182.904V11.15H181.904V12.15ZM181.904 17.3H180.904V18.3H181.904V17.3ZM176.404 33.1L176.573 34.0856L177.404 33.9432V33.1H176.404ZM176.404 21.7H177.404V20.7H176.404V21.7ZM170.804 21.75L170.754 20.7512L170.735 20.7522L170.716 20.7539L170.804 21.75ZM185.654 17.3V21.7H187.654V17.3H185.654ZM186.654 20.7H181.904V22.7H186.654V20.7ZM180.904 21.7V36.55H182.904V21.7H180.904ZM181.684 35.5746C178.653 36.2589 175.177 36.7 171.404 36.7V38.7C175.332 38.7 178.955 38.2411 182.125 37.5254L181.684 35.5746ZM171.404 36.7C167.428 36.7 164.2 36.174 161.993 34.8756C159.883 33.6344 158.604 31.6297 158.604 28.3H156.604C156.604 32.2703 158.201 34.9656 160.979 36.5994C163.659 38.176 167.331 38.7 171.404 38.7V36.7ZM158.604 28.3C158.604 24.454 161.288 21.3023 165.852 20.3802L165.456 18.4198C160.121 19.4977 156.604 23.346 156.604 28.3H158.604ZM165.909 18.4329C162.455 17.5241 160.204 15.0565 160.204 11.65H158.204C158.204 16.1435 161.253 19.2759 165.4 20.3671L165.909 18.4329ZM160.204 11.65C160.204 8.95658 161.314 6.78481 163.258 5.26241C165.226 3.72198 168.115 2.8 171.704 2.8V0.799997C167.794 0.799997 164.433 1.80302 162.025 3.68759C159.595 5.59018 158.204 8.34341 158.204 11.65H160.204ZM171.704 2.8C174.004 2.8 175.587 2.94624 177.258 3.28058L177.65 1.31942C175.822 0.953753 174.104 0.799997 171.704 0.799997V2.8ZM176.454 2.3V6.5H178.454V2.3H176.454ZM177.646 5.51851C175.515 5.10279 173.948 5 171.654 5V7C173.861 7 175.293 7.09721 177.263 7.48149L177.646 5.51851ZM171.654 5C169.422 5 167.534 5.56484 166.192 6.73308C164.83 7.91787 164.154 9.61392 164.154 11.6H166.154C166.154 10.0861 166.654 8.98213 167.504 8.24192C168.374 7.48516 169.737 7 171.654 7V5ZM164.154 11.6C164.154 13.8866 164.853 15.5751 166.164 16.6875C167.436 17.7676 169.132 18.1693 170.858 18.2489L170.95 16.2511C169.426 16.1807 168.247 15.8324 167.458 15.1625C166.706 14.5249 166.154 13.4634 166.154 11.6H164.154ZM170.849 18.2485C171.782 18.3003 172.913 18.3 173.954 18.3V16.3C172.896 16.3 171.826 16.2997 170.96 16.2515L170.849 18.2485ZM173.954 18.3H176.404V16.3H173.954V18.3ZM177.404 17.3V12.15H175.404V17.3H177.404ZM176.404 13.15H181.904V11.15H176.404V13.15ZM180.904 12.15V17.3H182.904V12.15H180.904ZM181.904 18.3H186.654V16.3H181.904V18.3ZM162.554 27.5C162.554 29.9237 163.261 31.7871 164.921 32.9807C166.499 34.1155 168.756 34.5 171.504 34.5V32.5C168.853 32.5 167.135 32.1095 166.088 31.3568C165.123 30.6629 164.554 29.5263 164.554 27.5H162.554ZM171.504 34.5C173.456 34.5 174.763 34.396 176.573 34.0856L176.235 32.1144C174.546 32.404 173.353 32.5 171.504 32.5V34.5ZM177.404 33.1V21.7H175.404V33.1H177.404ZM176.404 20.7H173.754V22.7H176.404V20.7ZM173.754 20.7C172.657 20.7 171.783 20.6998 170.754 20.7512L170.854 22.7488C171.826 22.7002 172.651 22.7 173.754 22.7V20.7ZM170.716 20.7539C168.046 20.9895 166.005 21.7199 164.616 22.9092C163.198 24.124 162.554 25.7377 162.554 27.5H164.554C164.554 26.2623 164.986 25.226 165.917 24.4283C166.878 23.6051 168.463 22.9605 170.892 22.7461L170.716 20.7539ZM227.161 32.6H228.161V31.6H227.161V32.6ZM227.161 37V38H228.161V37H227.161ZM200.511 37H199.511V38H200.511V37ZM200.511 32.8L199.719 32.1896L199.511 32.4594V32.8H200.511ZM220.511 6.85L221.303 7.46045L222.545 5.85H220.511V6.85ZM201.911 6.85H200.911V7.85H201.911V6.85ZM201.911 2.5V1.5H200.911V2.5H201.911ZM226.911 2.5H227.911V1.5H226.911V2.5ZM226.911 6.8L227.704 7.40978L227.911 7.14017V6.8H226.911ZM207.061 32.6L206.269 31.9902L205.03 33.6H207.061V32.6ZM226.161 32.6V37H228.161V32.6H226.161ZM227.161 36H200.511V38H227.161V36ZM201.511 37V32.8H199.511V37H201.511ZM201.303 33.4104L221.303 7.46045L219.719 6.23955L199.719 32.1896L201.303 33.4104ZM220.511 5.85H201.911V7.85H220.511V5.85ZM202.911 6.85V2.5H200.911V6.85H202.911ZM201.911 3.5H226.911V1.5H201.911V3.5ZM225.911 2.5V6.8H227.911V2.5H225.911ZM226.119 6.19021L206.269 31.9902L207.854 33.2098L227.704 7.40978L226.119 6.19021ZM207.061 33.6H227.161V31.6H207.061V33.6ZM247.135 37L246.143 37.1288L246.256 38H247.135V37ZM246.635 33.15L247.626 33.0212L247.188 29.6459L245.731 32.7219L246.635 33.15ZM245.285 36L245.855 36.8214L246.074 36.6692L246.189 36.4281L245.285 36ZM246.585 20.95V21.95H247.585V20.95H246.585ZM246.485 17.4L245.487 17.4696L245.488 17.4846L245.49 17.4995L246.485 17.4ZM236.685 18.85V19.85H237.598L237.681 18.9405L236.685 18.85ZM231.185 18.85L230.187 18.7898L230.123 19.85H231.185V18.85ZM251.935 17.15L252.931 17.0595L252.93 17.0505L251.935 17.15ZM252.585 37V38H253.73L253.576 36.8656L252.585 37ZM246.585 24.6H247.585V23.6745L246.662 23.603L246.585 24.6ZM248.126 36.8712L247.626 33.0212L245.643 33.2788L246.143 37.1288L248.126 36.8712ZM245.731 32.7219L244.381 35.5719L246.189 36.4281L247.539 33.5781L245.731 32.7219ZM244.714 35.1786C243.15 36.265 241.084 36.7 238.685 36.7V38.7C241.286 38.7 243.82 38.235 245.855 36.8214L244.714 35.1786ZM238.685 36.7C236.517 36.7 234.622 36.077 233.288 34.9635C231.975 33.8677 231.135 32.2411 231.135 30.05H229.135C229.135 32.8089 230.219 35.0073 232.006 36.499C233.773 37.973 236.153 38.7 238.685 38.7V36.7ZM231.135 30.05C231.135 27.4169 232.155 25.4734 234.275 24.1327C236.472 22.7439 239.934 21.95 244.885 21.95V19.95C239.785 19.95 235.873 20.7561 233.207 22.4423C230.464 24.1766 229.135 26.7831 229.135 30.05H231.135ZM244.885 21.95H246.585V19.95H244.885V21.95ZM247.585 20.95V20.3H245.585V20.95H247.585ZM247.585 20.3C247.585 19.3056 247.585 18.3574 247.48 17.3005L245.49 17.4995C245.584 18.4426 245.585 19.2944 245.585 20.3H247.585ZM247.482 17.3304C247.394 16.0607 246.938 14.8699 245.936 14.0099C244.946 13.1603 243.558 12.75 241.835 12.75V14.75C243.261 14.75 244.123 15.0896 244.633 15.5276C245.132 15.9551 245.426 16.5893 245.487 17.4696L247.482 17.3304ZM241.835 12.75C240.043 12.75 238.545 13.2595 237.46 14.3606C236.391 15.4453 235.851 16.9746 235.689 18.7595L237.681 18.9405C237.818 17.4254 238.254 16.4047 238.885 15.7644C239.499 15.1405 240.427 14.75 241.835 14.75V12.75ZM236.685 17.85H231.185V19.85H236.685V17.85ZM232.183 18.9102C232.343 16.2644 233.402 14.2568 235.057 12.8978C236.727 11.5265 239.086 10.75 241.935 10.75V8.75C238.734 8.75 235.893 9.62353 233.788 11.3522C231.668 13.0932 230.377 15.6356 230.187 18.7898L232.183 18.9102ZM241.935 10.75C245.236 10.75 247.363 11.4509 248.705 12.5392C250.026 13.6106 250.733 15.1778 250.94 17.2495L252.93 17.0505C252.687 14.6222 251.819 12.4894 249.965 10.9858C248.132 9.49912 245.484 8.75 241.935 8.75V10.75ZM250.939 17.2405C251.035 18.3024 251.085 19.6709 251.085 20.9H253.085C253.085 19.6291 253.034 18.1976 252.931 17.0595L250.939 17.2405ZM251.085 20.9V30.25H253.085V20.9H251.085ZM251.085 30.25C251.085 32.2984 251.188 34.1434 251.594 37.1344L253.576 36.8656C253.181 33.9566 253.085 32.2016 253.085 30.25H251.085ZM252.585 36H247.135V38H252.585V36ZM240.685 34.7C242.644 34.7 244.401 34.0265 245.662 32.6676C246.916 31.3152 247.585 29.3875 247.585 27.05H245.585C245.585 29.0125 245.028 30.4098 244.195 31.3074C243.369 32.1985 242.175 32.7 240.685 32.7V34.7ZM247.585 27.05V24.6H245.585V27.05H247.585ZM246.662 23.603C243.379 23.3485 240.522 23.5734 238.443 24.4765C237.388 24.9345 236.499 25.5821 235.876 26.4615C235.248 27.348 234.935 28.4059 234.935 29.6H236.935C236.935 28.7691 237.147 28.127 237.508 27.6181C237.873 27.1023 238.437 26.6593 239.239 26.311C240.873 25.6016 243.34 25.3515 246.507 25.597L246.662 23.603ZM234.935 29.6C234.935 31.2364 235.487 32.5721 236.589 33.474C237.658 34.3483 239.105 34.7 240.685 34.7V32.7C239.365 32.7 238.437 32.4017 237.856 31.926C237.308 31.4779 236.935 30.7636 236.935 29.6H234.935ZM266.931 26.1L267.702 25.4633L266.965 24.5708L266.189 25.4295L266.931 26.1ZM264.581 28.7L263.839 28.0295L263.581 28.315V28.7H264.581ZM264.581 37V38H265.581V37H264.581ZM259.081 37H258.081V38H259.081V37ZM259.081 0.249999V-0.750001H258.081V0.249999H259.081ZM264.581 0.249999H265.581V-0.750001H264.581V0.249999ZM264.581 23.25H263.581V25.8426L265.322 23.9215L264.581 23.25ZM276.181 10.45V9.45H275.738L275.44 9.77848L276.181 10.45ZM282.931 10.45L283.648 11.147L285.297 9.45H282.931V10.45ZM270.831 22.9L270.114 22.203L269.473 22.8621L270.076 23.5558L270.831 22.9ZM283.081 37V38H285.274L283.836 36.3442L283.081 37ZM275.931 37L275.16 37.6367L275.46 38H275.931V37ZM266.189 25.4295L263.839 28.0295L265.323 29.3705L267.673 26.7705L266.189 25.4295ZM263.581 28.7V37H265.581V28.7H263.581ZM264.581 36H259.081V38H264.581V36ZM260.081 37V0.249999H258.081V37H260.081ZM259.081 1.25H264.581V-0.750001H259.081V1.25ZM263.581 0.249999V23.25H265.581V0.249999H263.581ZM265.322 23.9215L276.922 11.1215L275.44 9.77848L263.84 22.5785L265.322 23.9215ZM276.181 11.45H282.931V9.45H276.181V11.45ZM282.214 9.75304L270.114 22.203L271.548 23.597L283.648 11.147L282.214 9.75304ZM270.076 23.5558L282.326 37.6558L283.836 36.3442L271.586 22.2442L270.076 23.5558ZM283.081 36H275.931V38H283.081V36ZM276.702 36.3633L267.702 25.4633L266.16 26.7367L275.16 37.6367L276.702 36.3633Z" fill="black" mask="url(#path-1-outside-1_0_1)"/>
<path d="M23.8124 14.9489H29.0622C29.0622 22.03 26.3152 25.3873 21.3097 25.3873C18.7458 25.3873 16.9145 24.4717 13.8013 22.8846C10.9323 21.3585 9.58935 20.7481 8.2464 20.7481C6.10988 20.7481 5.4384 22.3962 5.4384 25.3873H0.18868C0.18868 18.3063 2.87459 14.9489 7.88014 14.9489C10.566 14.9489 12.4584 15.9256 15.4495 17.4517C18.0744 18.8557 19.4784 19.5882 21.0044 19.5882C22.9578 19.5882 23.8124 18.3063 23.8124 14.9489Z" fill="#E36D51"/>
</svg>
