<svg width="1986" height="1542" viewBox="0 0 1986 1542" fill="none" xmlns="http://www.w3.org/2000/svg">
<ellipse opacity="0.2" cx="577" cy="1199.92" rx="51" ry="50.994" fill="white"/>
<ellipse opacity="0.2" cx="51" cy="921.955" rx="51" ry="50.994" fill="white"/>
<ellipse opacity="0.2" cx="303" cy="50.994" rx="51" ry="50.994" fill="white"/>
<ellipse opacity="0.2" cx="1203" cy="1040.94" rx="68" ry="67.9919" fill="white"/>
<ellipse opacity="0.2" cx="850" cy="958.947" rx="51" ry="50.994" fill="white"/>
<ellipse opacity="0.2" cx="412" cy="1218.92" rx="32" ry="31.9962" fill="white"/>
<ellipse opacity="0.2" cx="468" cy="1105.93" rx="32" ry="31.9962" fill="white"/>
<ellipse opacity="0.2" cx="791" cy="830.965" rx="32" ry="31.9962" fill="white"/>
<ellipse opacity="0.2" cx="1406" cy="562.996" rx="32" ry="31.9962" fill="white"/>
<ellipse opacity="0.2" cx="1781" cy="1030.94" rx="32" ry="31.9962" fill="white"/>
<ellipse opacity="0.2" cx="1865" cy="830.965" rx="32" ry="31.9962" fill="white"/>
<g opacity="0.2">
<path d="M262.549 1112.47L116.969 1092.41C75.017 1086.62 36.3199 1115.94 30.5372 1157.89L10.4703 1303.45C4.68749 1345.4 34.0088 1384.09 75.9612 1389.87L221.541 1409.94C263.493 1415.72 302.19 1386.4 307.973 1344.46L328.04 1198.89C333.823 1156.95 304.501 1118.25 262.549 1112.47Z" fill="white"/>
<path d="M1549.62 1108.72L1422.71 1078.63C1386.13 1069.97 1349.46 1092.58 1340.79 1129.15L1310.7 1256.05C1302.03 1292.62 1324.65 1329.29 1361.22 1337.96L1488.14 1368.05C1524.71 1376.72 1561.39 1354.1 1570.06 1317.53L1600.15 1190.63C1608.82 1154.06 1586.2 1117.39 1549.62 1108.72Z" fill="white"/>
<path d="M976.154 1114.27L774.316 1124.5C716.152 1127.45 671.384 1176.87 674.325 1234.88L684.53 1436.21C687.47 1494.23 737.006 1538.87 795.171 1535.92L997.009 1525.69C1055.17 1522.75 1099.94 1473.32 1097 1415.31L1086.8 1213.98C1083.85 1155.97 1034.32 1111.32 976.154 1114.27Z" fill="white"/>
<path d="M1885.97 1119.88L1695.12 1110.54C1640.12 1107.85 1593.36 1150.14 1590.68 1205L1581.36 1395.36C1578.68 1450.21 1621.08 1496.87 1676.08 1499.56L1866.93 1508.9C1921.92 1511.59 1968.68 1469.3 1971.37 1414.44L1980.68 1224.08C1983.37 1169.22 1940.96 1122.57 1885.97 1119.88Z" fill="white"/>
<path d="M510.772 1274.15L407.754 1282.26C378.066 1284.6 355.895 1310.56 358.234 1340.24L366.347 1443.25C368.685 1472.93 394.647 1495.1 424.334 1492.76L527.352 1484.65C557.039 1482.31 579.21 1456.35 576.872 1426.67L568.759 1323.66C566.42 1293.98 540.459 1271.81 510.772 1274.15Z" fill="white"/>
<path d="M1301.8 1303.24L1198.57 1298.71C1168.81 1297.41 1143.64 1320.46 1142.33 1350.21L1137.8 1453.43C1136.5 1483.18 1159.55 1508.35 1189.31 1509.66L1292.54 1514.19C1322.29 1515.5 1347.47 1492.44 1348.78 1462.69L1353.31 1359.47C1354.61 1329.72 1331.55 1304.55 1301.8 1303.24Z" fill="white"/>
</g>
<ellipse opacity="0.2" cx="410" cy="572.232" rx="51" ry="50.994" fill="white"/>
</svg>