<svg width="13" height="23" viewBox="0 0 13 23" fill="none" xmlns="http://www.w3.org/2000/svg">
<path d="M3.09993 0.969937L3.09983 0.969834C2.96452 0.82664 2.80232 0.7115 2.62251 0.630989C2.44269 0.550477 2.24878 0.506171 2.05185 0.5006C1.85491 0.495029 1.6588 0.528302 1.47473 0.59852C1.29065 0.668737 1.1222 0.774523 0.97901 0.909839C0.835814 1.04516 0.720674 1.20735 0.640162 1.38717C0.559651 1.56698 0.515346 1.76089 0.509774 1.95783C0.504203 2.15476 0.537477 2.35087 0.607695 2.53495C0.677911 2.71902 0.783695 2.88747 0.919014 3.03066L8.44668 11.0003L0.921033 18.9697C0.783871 19.1117 0.676086 19.2794 0.603877 19.4632C0.531211 19.6482 0.496019 19.8457 0.500346 20.0444C0.504674 20.2431 0.548431 20.4389 0.629082 20.6205C0.70973 20.8021 0.825663 20.9659 0.970144 21.1023C1.11462 21.2388 1.28478 21.3451 1.47071 21.4153C1.65664 21.4854 1.85466 21.5178 2.05325 21.5108C2.25184 21.5037 2.44705 21.4573 2.62754 21.3742C2.80688 21.2916 2.96812 21.1744 3.10205 21.0293L11.5998 12.0307L3.09993 0.969937ZM3.09993 0.969937L11.5998 9.96975L3.09993 0.969937Z" fill="black" stroke="black"/>
</svg>
