<svg width="56" height="56" viewBox="0 0 56 56" fill="none" xmlns="http://www.w3.org/2000/svg">
<circle cx="28" cy="28" r="28" fill="#E3E3E3"/>
<path d="M27.4098 38.0301L27.4099 38.0302C27.5452 38.1734 27.7074 38.2885 27.8873 38.369C28.0671 38.4495 28.261 38.4938 28.4579 38.4994C28.6549 38.505 28.851 38.4717 29.035 38.4015C29.2191 38.3313 29.3876 38.2255 29.5308 38.0902C29.674 37.9548 29.7891 37.7927 29.8696 37.6128C29.9501 37.433 29.9944 37.2391 30 37.0422C30.0056 36.8452 29.9723 36.6491 29.9021 36.4651C29.8319 36.281 29.7261 36.1125 29.5908 35.9693L22.0631 27.9997L29.5887 20.0303C29.7259 19.8883 29.8337 19.7206 29.9059 19.5368C29.9786 19.3518 30.0137 19.1543 30.0094 18.9556C30.0051 18.7569 29.9613 18.5611 29.8807 18.3795C29.8 18.1979 29.6841 18.0341 29.5396 17.8977C29.3951 17.7612 29.225 17.6549 29.0391 17.5847C28.8531 17.5146 28.6551 17.4822 28.4565 17.4892C28.2579 17.4963 28.0627 17.5427 27.8822 17.6258C27.7029 17.7084 27.5416 17.8256 27.4077 17.9707L18.91 26.9693L27.4098 38.0301ZM27.4098 38.0301L18.91 29.0303L27.4098 38.0301Z" fill="black" stroke="black"/>
</svg>
