<svg width="1804" height="1025" viewBox="0 0 1804 1025" fill="none" xmlns="http://www.w3.org/2000/svg">
<ellipse opacity="0.2" cx="46.3369" cy="40.4173" rx="46.3369" ry="40.4173" transform="matrix(-1 0 0 1 1696.68 112)" fill="white"/>
<ellipse opacity="0.2" cx="46.3369" cy="40.4173" rx="46.3369" ry="40.4173" transform="matrix(-1 0 0 1 1326.1 827.678)" fill="white"/>
<ellipse opacity="0.2" cx="46.3369" cy="40.4173" rx="46.3369" ry="40.4173" transform="matrix(-1 0 0 1 1804 607.363)" fill="white"/>
<ellipse opacity="0.2" cx="61.7825" cy="53.8898" rx="61.7825" ry="53.8898" transform="matrix(-1 0 0 1 772.779 694.539)" fill="white"/>
<ellipse opacity="0.2" cx="29.0741" cy="25.3599" rx="29.0741" ry="25.3599" transform="matrix(-1 0 0 1 1458.75 857.793)" fill="white"/>
<ellipse opacity="0.2" cx="19.0799" cy="16.6424" rx="19.0799" ry="16.6424" transform="matrix(-1 0 0 1 1477.83 763.486)" fill="white"/>
<ellipse opacity="0.2" cx="29.0741" cy="25.3599" rx="29.0741" ry="25.3599" transform="matrix(-1 0 0 1 1787.15 282)" fill="white"/>
<ellipse opacity="0.2" cx="29.0741" cy="25.3599" rx="29.0741" ry="25.3599" transform="matrix(-1 0 0 1 118.15 104)" fill="white"/>
<ellipse opacity="0.2" cx="29.0741" cy="25.3599" rx="29.0741" ry="25.3599" transform="matrix(-1 0 0 1 802.15 142)" fill="white"/>
<ellipse opacity="0.2" cx="29.0741" cy="25.3599" rx="29.0741" ry="25.3599" transform="matrix(-1 0 0 1 273.15 0)" fill="white"/>
<g opacity="0.2">
<path d="M1565.46 798.781L1697.73 782.878C1735.84 778.295 1771 801.532 1776.26 834.779L1794.49 950.151C1799.74 983.398 1773.1 1014.07 1734.99 1018.65L1602.72 1034.55C1564.6 1039.13 1529.44 1015.9 1524.19 982.65L1505.96 867.278C1500.7 834.031 1527.34 803.364 1565.46 798.781Z" fill="white"/>
<path d="M396.067 795.808L511.377 771.964C544.607 765.093 577.931 783.02 585.808 812.005L613.143 912.584C621.021 941.569 600.468 970.636 567.239 977.507L451.928 1001.35C418.698 1008.22 385.374 990.294 377.497 961.31L350.162 860.73C342.285 831.745 362.837 802.679 396.067 795.808Z" fill="white"/>
<path d="M917.1 800.208L1100.48 808.315C1153.33 810.651 1194 849.822 1191.33 895.806L1182.06 1055.37C1179.39 1101.36 1134.38 1136.74 1081.54 1134.4L898.152 1126.3C845.306 1123.96 804.631 1084.79 807.303 1038.81L816.575 879.239C819.247 833.255 864.254 797.872 917.1 800.208Z" fill="white"/>
<path d="M90.4761 804.654L263.872 797.253C313.84 795.12 356.325 828.638 358.765 872.117L367.23 1023C369.669 1066.47 331.139 1103.45 281.171 1105.58L107.775 1112.99C57.8068 1115.12 15.3219 1081.6 12.8825 1038.12L4.4173 887.243C1.97785 843.764 40.5076 806.787 90.4761 804.654Z" fill="white"/>
<path d="M1339.93 926.926L1433.53 933.356C1460.5 935.209 1480.65 955.783 1478.52 979.31L1471.15 1060.95C1469.02 1084.48 1445.44 1102.05 1418.46 1100.2L1324.87 1093.77C1297.89 1091.91 1277.75 1071.34 1279.87 1047.81L1287.24 966.17C1289.37 942.643 1312.96 925.073 1339.93 926.926Z" fill="white"/>
<path d="M621.228 949.984L715.026 946.393C742.056 945.358 764.931 963.633 766.117 987.21L770.234 1069.03C771.42 1092.6 750.47 1112.55 723.439 1113.59L629.641 1117.18C602.611 1118.22 579.737 1099.94 578.55 1076.36L574.433 994.548C573.247 970.971 594.197 951.019 621.228 949.984Z" fill="white"/>
</g>
</svg>
