<svg width="19" height="11" viewBox="0 0 19 11" fill="none" xmlns="http://www.w3.org/2000/svg">
<path d="M17.3527 2.7127L17.3527 2.71278L10.0099 9.64764C10.0098 9.64768 10.0098 9.64773 10.0097 9.64778C9.7825 9.86252 9.48173 9.98216 9.1691 9.98216C8.85647 9.98216 8.55571 9.86252 8.3285 9.6478C8.32844 9.64774 8.32839 9.64769 8.32833 9.64764L0.986567 2.71452C0.868226 2.60525 0.772605 2.47369 0.705207 2.32736C0.63738 2.18011 0.599484 2.02084 0.593728 1.85881C0.587972 1.69678 0.614469 1.53523 0.671678 1.38352C0.728885 1.23183 0.815662 1.093 0.92698 0.97512C1.03829 0.857242 1.17192 0.762656 1.32009 0.696856C1.46827 0.631055 1.62804 0.595354 1.79013 0.591823C1.95222 0.588293 2.1134 0.617004 2.26431 0.676293C2.41425 0.735206 2.55109 0.823141 2.66696 0.935048L9.16906 7.0751L15.6713 0.933409C15.6714 0.933387 15.6714 0.933366 15.6714 0.933344C15.7882 0.822971 15.9256 0.736686 16.0758 0.679408C16.226 0.622119 16.386 0.594972 16.5467 0.599518C16.7073 0.604062 16.8655 0.640211 17.0122 0.705899C17.159 0.771587 17.2913 0.865528 17.4017 0.982358C17.5121 1.09919 17.5984 1.23662 17.6557 1.38681C17.713 1.53699 17.7401 1.69699 17.7356 1.85767C17.731 2.01834 17.6949 2.17655 17.6292 2.32326C17.5635 2.46997 17.4696 2.6023 17.3527 2.7127Z" fill="black" stroke="black" stroke-width="0.815883"/>
</svg>
