<svg width="331" height="208" viewBox="0 0 331 208" fill="none" xmlns="http://www.w3.org/2000/svg">
<path d="M316.875 159.031H315.042V151.946H312.494V150.347H319.423V151.946H316.875V159.031ZM330.868 159.031H329.035V152.063L326.63 159.031H325.057L322.652 152.063V159.031H320.819V150.347H323.718L325.837 156.717L327.982 150.347H330.868V159.031Z" fill="black"/>
<path d="M201.029 23.2799C198.601 22.3668 195.63 21.5217 192.153 20.7787C182.897 18.7994 170.907 17.6197 158.038 17.4212C157.148 17.4041 156.258 17.3985 155.361 17.3928C154.913 17.3871 154.465 17.3871 154.017 17.3871C153.569 17.3871 153.121 17.3871 152.673 17.3928C151.777 17.3985 150.887 17.4041 149.996 17.4212C149.497 17.4268 148.998 17.4382 148.499 17.4495C141.007 17.6083 133.838 18.1074 127.372 18.9014L126.034 15.3907L121.672 3.96821C121.672 3.96821 121.672 3.93418 121.655 3.91716C121.627 3.80373 121.587 3.68463 121.548 3.5712C120.43 0.508553 116.369 -0.818593 112.467 0.599299C108.571 2.02286 106.314 5.65266 107.431 8.71531C107.482 8.85143 107.539 8.98755 107.601 9.12366L111.861 20.2796L112.365 21.6068C110.363 22.1286 108.577 22.6844 107.011 23.2742C102.491 24.97 99.8538 26.921 99.332 28.9968V122.005C99.332 134.443 126.669 140.659 154 140.659C181.332 140.659 208.668 134.443 208.668 122.005V28.8721C208.073 26.8416 205.453 24.9417 201.029 23.2799ZM138.16 21.499C138.233 21.4877 138.307 21.482 138.381 21.482C142.963 21.1304 147.937 20.9375 153.235 20.9375C155.282 20.9375 157.284 20.9659 159.229 21.0226C159.394 21.0226 159.558 21.0339 159.717 21.0339C183.339 21.7656 199.129 26.4333 200.394 30.9932C199.231 34.8612 185.716 38.8143 165.094 39.9373H165.043C161.538 40.0904 157.857 40.1755 154.017 40.1755C147.223 40.1755 140.916 39.9146 135.216 39.4495L128.75 22.5086C131.66 22.1002 134.802 21.7542 138.16 21.499ZM109.41 5.89654C108.974 4.8076 110.545 3.14583 112.921 2.18734C115.297 1.22884 117.577 1.33093 118.02 2.41987C118.462 3.50881 116.891 5.17058 114.515 6.12908C112.138 7.09324 109.853 6.98548 109.41 5.89654ZM113.959 25.7867L118.218 36.9427C111.044 35.2526 106.705 33.1144 106.07 30.9932C106.569 29.1897 109.337 27.3691 113.959 25.7867ZM105.605 37.283C106.268 37.5949 106.989 37.8955 107.754 38.1904C110.04 39.0639 112.757 39.8749 115.887 40.6065C117.186 40.9071 118.542 41.1907 119.943 41.4573L120.98 44.1853L130.458 69.0154C119.506 70.8984 110.687 74.0517 105.605 77.9198V37.283ZM150.047 103.464L143.684 117.303C141.852 121.29 137.133 123.037 133.146 121.199L119.307 114.836C115.32 113.004 113.573 108.285 115.411 104.298L121.774 90.4596C123.606 86.4725 128.325 84.7256 132.312 86.5632L146.151 92.9267C150.138 94.7586 151.885 99.4774 150.047 103.464ZM166.239 127.234L157.704 127.62C155.248 127.733 153.161 125.827 153.053 123.366L152.667 114.83C152.554 112.369 154.46 110.287 156.921 110.18L165.457 109.794C167.913 109.681 170 111.586 170.107 114.048L170.493 122.583C170.607 125.045 168.701 127.126 166.239 127.234ZM183.169 99.1257L171.196 103.555C167.748 104.831 163.92 103.067 162.644 99.6192L158.214 87.6465C156.938 84.1982 158.702 80.3699 162.15 79.0938L174.123 74.6643C177.571 73.3882 181.4 75.152 182.676 78.6003L187.105 90.573C188.381 94.0213 186.617 97.8496 183.169 99.1257ZM201.942 77.5624C193.344 71.3748 175.115 67.1097 154.017 67.1097C151.244 67.1097 148.516 67.1835 145.856 67.3253L138.33 47.6166L136.815 43.6351C142.288 44.0605 148.079 44.2874 154.017 44.2874C168.4 44.2874 181.938 42.9829 192.153 40.6065C195.278 39.8806 198 39.0695 200.28 38.1904C200.864 37.9636 201.415 37.7367 201.942 37.5042V77.5624Z" fill="url(#paint0_linear_0_1)"/>
<path d="M2.50683 179.209C5.15545 180.882 8.64346 182.278 11.8989 182.278C15.1544 182.278 16.6914 180.604 16.7368 178.602C16.7368 177.02 15.8066 175.534 13.158 174.371L7.66795 172.046C3.80562 170.373 1.157 167.906 1.157 163.72C1.157 158.23 5.80768 154.328 12.0861 154.328C16.2263 154.328 20.0887 155.633 22.5048 156.886C22.414 158.656 21.5746 160.465 20.3212 161.627C17.9051 160.465 14.5986 159.393 12.1371 159.393C9.1142 159.393 7.53184 161.066 7.53184 162.926C7.53184 164.509 8.64914 165.529 10.8327 166.46L16.3228 168.785C20.5537 170.6 23.2988 173.623 23.2988 177.712C23.2988 183.247 19.3911 187.388 11.4849 187.388C7.67363 187.388 3.30085 186.134 0 183.945C0.187162 182.13 1.30446 180.224 2.5125 179.204L2.50683 179.209Z" fill="black"/>
<path d="M33.5699 179.533L31.3863 186.787C30.598 186.974 29.6678 187.019 28.6867 187.019C27.7055 187.019 26.4521 186.877 25.7091 186.599L25.4766 186.276L35.8499 154.975C36.8707 154.833 38.4077 154.742 39.4797 154.742C40.4552 154.742 42.0829 154.833 43.0584 155.02L53.2445 186.321C52.3598 186.832 50.8738 187.11 49.6658 187.11C47.6637 187.11 46.6882 186.412 45.9452 183.764L44.6408 179.533C43.9432 179.533 42.8259 179.578 42.3608 179.578H35.8499C35.3848 179.578 34.3129 179.578 33.5699 179.533ZM35.1069 174.604C35.7591 174.604 36.7346 174.559 37.1997 174.559H41.1981C41.6178 174.559 42.5026 174.604 43.1492 174.604L41.754 169.863C40.9656 167.214 39.9391 163.63 39.2414 160.839H38.9635C38.4985 163.21 37.523 166.562 36.9161 168.7L35.1012 174.604H35.1069Z" fill="black"/>
<path d="M60.3503 186.974C59.4655 186.974 58.2121 186.928 57.1855 186.741V155.258L57.5088 154.98H76.673C76.8602 155.678 76.951 156.654 76.951 157.397C76.951 159.444 75.879 160.278 73.5537 160.278H63.3676C63.4129 161.815 63.4129 163.346 63.4129 164.787V168.275H74.0188C74.2513 169.018 74.342 170.135 74.342 170.832C74.342 171.53 74.2513 172.647 74.0188 173.436H63.4129V186.736C62.392 186.923 61.2747 186.968 60.3446 186.968L60.3503 186.974Z" fill="black"/>
<path d="M101.26 183.86C100.936 185.811 99.5356 186.838 97.2613 186.838H84.194C81.9594 186.838 80.6152 185.442 80.6152 183.117V155.304L80.9385 154.98H100.33C100.517 155.911 100.562 156.75 100.562 157.448C100.562 158.145 100.375 159.308 100.052 160.238H86.7519C86.7519 161.446 86.7972 162.24 86.7972 163.448V168.241C87.9599 168.195 89.168 168.195 89.8202 168.195H97.681C97.9589 168.984 98.0553 170.055 98.0553 170.753C98.0553 171.451 97.9646 172.523 97.681 173.311H86.7972V178.801C86.7972 179.822 86.7519 180.616 86.7519 181.682C87.7274 181.637 88.7539 181.591 90.0074 181.591H101.402C101.402 182.102 101.402 183.077 101.26 183.871V183.86Z" fill="black"/>
<path d="M112.428 163.584C112.428 162.331 112.474 161.446 112.474 160.142H112.428C111.776 160.142 110.29 160.187 109.638 160.187H104.477C104.29 159.257 104.244 158.327 104.244 157.584C104.244 156.886 104.29 155.911 104.477 154.98H126.709C126.896 155.633 127.032 156.608 127.032 157.397C127.032 159.444 125.961 160.187 123.686 160.187H121.503C120.85 160.187 119.365 160.142 118.712 160.142H118.667C118.667 161.446 118.712 162.325 118.712 163.584V186.747C117.64 186.934 116.478 186.979 115.548 186.979C114.617 186.979 113.5 186.934 112.434 186.747V163.584H112.428Z" fill="black"/>
<path d="M148.381 154.98C149.22 154.793 150.099 154.748 150.939 154.748C152.011 154.748 153.122 154.889 154.007 155.167L154.24 155.542L145.313 176.844V186.752C144.337 186.939 143.129 186.985 142.199 186.985C141.411 186.985 140.061 186.939 139.085 186.752V176.663L130.158 155.734C131.366 155.037 132.716 154.617 134.021 154.617C135.739 154.617 136.578 155.406 137.321 157.22L140.254 164.384C140.951 166.199 141.694 168.427 142.256 170.617H142.534C143.089 168.524 144.02 165.966 144.717 164.196L148.392 154.986L148.381 154.98Z" fill="black"/>
<path d="M166.394 179.209C169.042 180.882 172.53 182.278 175.786 182.278C179.041 182.278 180.578 180.604 180.624 178.602C180.624 177.02 179.693 175.534 177.045 174.371L171.555 172.046C167.692 170.373 165.044 167.906 165.044 163.72C165.044 158.23 169.694 154.328 175.973 154.328C180.113 154.328 183.975 155.633 186.391 156.886C186.301 158.656 185.461 160.465 184.208 161.627C181.792 160.465 178.485 159.393 176.024 159.393C173.001 159.393 171.419 161.066 171.419 162.926C171.419 164.509 172.536 165.529 174.719 166.46L180.209 168.785C184.44 170.6 187.185 173.623 187.185 177.712C187.185 183.247 183.278 187.388 175.372 187.388C171.56 187.388 167.188 186.134 163.887 183.945C164.074 182.13 165.191 180.224 166.399 179.204L166.394 179.209Z" fill="black"/>
<path d="M197.274 163.584C197.274 162.331 197.319 161.446 197.319 160.142H197.274C196.622 160.142 195.136 160.187 194.484 160.187H189.322C189.135 159.257 189.09 158.327 189.09 157.584C189.09 156.886 189.135 155.911 189.322 154.98H211.555C211.742 155.633 211.878 156.608 211.878 157.397C211.878 159.444 210.806 160.187 208.532 160.187H206.348C205.696 160.187 204.21 160.142 203.558 160.142H203.513C203.513 161.446 203.558 162.325 203.558 163.584V186.747C202.486 186.934 201.323 186.979 200.393 186.979C199.463 186.979 198.346 186.934 197.28 186.747V163.584H197.274Z" fill="black"/>
<path d="M231.922 173.071C233.595 173.678 234.712 175.254 235.364 177.166L237.083 181.862C237.548 183.166 238.246 184.42 239.266 185.259C238.478 186.376 236.754 187.119 235.126 187.119C232.846 187.119 232.058 185.866 231.173 183.444L229.222 177.909C228.525 176.048 227.594 174.563 224.895 174.563H222.059V186.745C221.038 186.932 219.824 186.978 218.945 186.978C218.157 186.978 216.852 186.932 215.877 186.745V155.211L216.2 154.933C219.921 154.843 223.454 154.746 226.806 154.746C233.272 154.746 237.735 157.956 237.735 164.558C237.735 168.976 234.945 171.999 231.922 173.071ZM222.065 169.719C223.692 169.628 225.462 169.577 226.341 169.577C230.385 169.577 231.315 167.11 231.315 164.552C231.315 161.994 230.385 159.527 226.341 159.527C225.224 159.527 223.505 159.527 222.065 159.482V169.713V169.719Z" fill="black"/>
<path d="M249.035 179.533L246.851 186.787C246.063 186.974 245.133 187.019 244.152 187.019C243.17 187.019 241.917 186.877 241.174 186.599L240.941 186.276L251.315 154.975C252.336 154.833 253.873 154.742 254.945 154.742C255.92 154.742 257.548 154.833 258.523 155.02L268.709 186.321C267.825 186.832 266.339 187.11 265.131 187.11C263.129 187.11 262.153 186.412 261.41 183.764L260.106 179.533C259.408 179.533 258.291 179.578 257.826 179.578H251.315C250.85 179.578 249.778 179.578 249.035 179.533ZM250.572 174.604C251.224 174.604 252.199 174.559 252.665 174.559H256.663C257.083 174.559 257.962 174.604 258.614 174.604L257.219 169.863C256.43 167.214 255.404 163.63 254.706 160.839H254.428C253.963 163.21 252.988 166.562 252.381 168.7L250.566 174.604H250.572Z" fill="black"/>
<path d="M269.314 155.348C270.335 154.883 271.549 154.605 272.66 154.605C274.798 154.605 275.683 155.394 276.103 158.003L278.519 171.864C278.984 174.564 279.636 178.749 279.869 180.978C279.96 181.534 280.011 181.534 280.334 181.534L284.752 155.632C286.005 155.399 287.588 155.309 288.796 155.309C290.004 155.309 291.632 155.399 292.794 155.632L296.838 180.978C296.929 181.534 297.071 181.534 297.303 181.534C297.627 178.885 298.324 174.603 298.84 171.768L301.909 154.98C302.839 154.793 303.86 154.747 304.744 154.747C305.674 154.747 306.837 154.889 307.677 155.167L308 155.541L301.58 186.701C300.139 186.888 297.814 186.979 296.186 186.979C294.326 186.979 292.743 186.655 292.375 184.098L290.469 172.891C289.913 169.544 289.261 165.217 288.887 161.774H288.512C288.047 165.217 287.35 169.448 286.743 172.891L284.276 186.701C282.79 186.888 280.697 186.979 279.018 186.979C277.016 186.979 275.485 186.655 274.974 184.098L269.303 155.354L269.314 155.348Z" fill="black"/>
<mask id="mask0_0_1" style="mask-type:luminance" maskUnits="userSpaceOnUse" x="5" y="196" width="8" height="12">
<path d="M5.18945 206.208L5.93243 204.353C6.65839 204.903 7.53748 205.306 8.48463 205.306C9.55089 205.306 10.0443 204.818 10.0443 203.985C10.0443 203.27 9.39208 202.958 8.42792 202.397C7.24256 201.727 5.32557 201.138 5.32557 199.056C5.32557 197.23 6.93062 196.266 8.68314 196.266C9.81178 196.266 10.8043 196.487 11.5926 197.082L11.0425 199.045C10.3449 198.466 9.67566 198.228 8.66612 198.228C7.77569 198.228 7.2142 198.523 7.2142 198.988C7.2142 199.629 7.88345 199.969 9.01209 200.559C10.793 201.512 12.0407 202.431 12.0407 204.092C12.0407 206.248 10.6455 207.223 8.43359 207.223C7.35032 207.223 6.09123 206.866 5.19512 206.214L5.18945 206.208Z" fill="white"/>
</mask>
<g mask="url(#mask0_0_1)">
<path d="M6.79451 196.258H5.18945V207.215H6.79451V196.258Z" fill="#DC5647"/>
<path d="M9.7592 196.258H6.79297V207.215H9.7592V196.258Z" fill="#DD5746"/>
<path d="M12.0284 196.258H9.75977V207.215H12.0284V196.258Z" fill="#DE5846"/>
</g>
<mask id="mask1_0_1" style="mask-type:luminance" maskUnits="userSpaceOnUse" x="22" y="196" width="3" height="12">
<path d="M22.5 196.406H24.417V207.063H22.5V196.406Z" fill="white"/>
</mask>
<g mask="url(#mask1_0_1)">
<path d="M24.417 196.406H22.5V207.063H24.417V196.406Z" fill="#E25C43"/>
</g>
<mask id="mask2_0_1" style="mask-type:luminance" maskUnits="userSpaceOnUse" x="35" y="196" width="8" height="12">
<path d="M37.0791 203.012V207.067H35.1621V196.41H39.1379C41.0946 196.41 42.3763 197.669 42.3763 199.705C42.3763 201.844 41.0095 203.018 38.9791 203.018H37.0791V203.012ZM37.0791 198.293V201.112H39.0982C40.034 201.112 40.4934 200.664 40.4934 199.773C40.4934 198.781 40.034 198.287 39.0982 198.287H37.0791V198.293Z" fill="white"/>
</mask>
<g mask="url(#mask2_0_1)">
<path d="M39.4395 198.289H37.0801V201.108H39.4395V198.289Z" fill="#E76240"/>
<path d="M40.4924 198.289H39.4375V201.108H40.4924V198.289Z" fill="#E8633F"/>
<path d="M36.4666 196.402H35.1621V207.059H36.4666V196.402Z" fill="#E66141"/>
<path d="M39.4389 196.402H36.4727V207.059H39.4389V196.402Z" fill="#E76240"/>
<path d="M42.3754 196.402H39.4375V207.059H42.3754V196.402Z" fill="#E8633F"/>
</g>
<mask id="mask3_0_1" style="mask-type:luminance" maskUnits="userSpaceOnUse" x="57" y="196" width="8" height="12">
<path d="M57.7109 206.208L58.4539 204.353C59.1799 204.903 60.059 205.306 61.0061 205.306C62.0724 205.306 62.5658 204.818 62.5658 203.985C62.5658 203.27 61.9136 202.958 60.9494 202.397C59.764 201.727 57.8471 201.138 57.8471 199.056C57.8471 197.23 59.4521 196.266 61.2046 196.266C62.3333 196.266 63.3258 196.487 64.1141 197.082L63.564 199.045C62.8664 198.466 62.1971 198.228 61.1876 198.228C60.2972 198.228 59.7357 198.523 59.7357 198.988C59.7357 199.629 60.4049 199.969 61.5336 200.559C63.3144 201.512 64.5622 202.431 64.5622 204.092C64.5622 206.248 63.167 207.223 60.9551 207.223C59.8718 207.223 58.6127 206.866 57.7166 206.214L57.7109 206.208Z" fill="white"/>
</mask>
<g mask="url(#mask3_0_1)">
<path d="M59.8321 196.258H57.7109V207.215H59.8321V196.258Z" fill="#ED6A3C"/>
<path d="M62.3275 196.258H59.832V207.215H62.3275V196.258Z" fill="#ED6B3C"/>
<path d="M64.5494 196.258H62.3262V207.215H64.5494V196.258Z" fill="#EE6C3C"/>
</g>
<mask id="mask4_0_1" style="mask-type:luminance" maskUnits="userSpaceOnUse" x="74" y="196" width="9" height="12">
<path d="M79.6394 196.406L82.7871 207.063H80.7227L80.1612 205.072H76.6732L76.123 207.063H74.0586L77.2063 196.406H79.6394ZM77.178 203.189H79.6451L78.3973 198.868L77.178 203.189Z" fill="white"/>
</mask>
<g mask="url(#mask4_0_1)">
<path d="M77.2912 198.875H77.1777V203.197H77.2912V198.875Z" fill="#EE713D"/>
<path d="M79.639 198.875H77.291V203.197H79.639V198.875Z" fill="#EF723D"/>
<path d="M74.7959 196.406H74.0586V207.063H74.7959V196.406Z" fill="#EE703D"/>
<path d="M77.2904 196.406H74.7949V207.063H77.2904V196.406Z" fill="#EE713D"/>
<path d="M79.7865 196.406H77.291V207.063H79.7865V196.406Z" fill="#EF723D"/>
<path d="M82.2826 196.406H79.7871V207.063H82.2826V196.406Z" fill="#EF733D"/>
<path d="M82.7878 196.406H82.2773V207.063H82.7878V196.406Z" fill="#EF743D"/>
</g>
<mask id="mask5_0_1" style="mask-type:luminance" maskUnits="userSpaceOnUse" x="92" y="196" width="7" height="12">
<path d="M94.5967 198.295V200.654H97.1205V202.537H94.5967V207.063H92.6797V196.406H98.5554V198.289H94.591L94.5967 198.295Z" fill="white"/>
</mask>
<g mask="url(#mask5_0_1)">
<path d="M94.7498 196.406H92.6797V207.063H94.7498V196.406Z" fill="#EF783D"/>
<path d="M97.2455 196.406H94.75V207.063H97.2455V196.406Z" fill="#F0793D"/>
<path d="M98.5619 196.406H97.2461V207.063H98.5619V196.406Z" fill="#F07A3D"/>
</g>
<mask id="mask6_0_1" style="mask-type:luminance" maskUnits="userSpaceOnUse" x="108" y="196" width="7" height="12">
<path d="M108.732 196.404H114.608V198.287H110.644V200.646H113.111V202.529H110.644V205.172H114.608V207.055H108.732V196.398V196.404Z" fill="white"/>
</mask>
<g mask="url(#mask6_0_1)">
<path d="M109.714 196.406H108.732V207.063H109.714V196.406Z" fill="#F07F3E"/>
<path d="M112.21 196.406H109.715V207.063H112.21V196.406Z" fill="#F1803E"/>
<path d="M114.608 196.406H112.209V207.063H114.608V196.406Z" fill="#F1813E"/>
</g>
<mask id="mask7_0_1" style="mask-type:luminance" maskUnits="userSpaceOnUse" x="147" y="196" width="8" height="12">
<path d="M147.596 206.208L148.339 204.353C149.065 204.903 149.944 205.306 150.891 205.306C151.957 205.306 152.451 204.818 152.451 203.985C152.451 203.27 151.798 202.958 150.834 202.397C149.649 201.727 147.732 201.138 147.732 199.056C147.732 197.23 149.337 196.266 151.089 196.266C152.218 196.266 153.211 196.487 153.999 197.082L153.449 199.045C152.751 198.466 152.082 198.228 151.072 198.228C150.182 198.228 149.62 198.523 149.62 198.988C149.62 199.629 150.29 199.969 151.418 200.559C153.199 201.512 154.447 202.431 154.447 204.092C154.447 206.248 153.052 207.223 150.84 207.223C149.757 207.223 148.497 206.866 147.601 206.214L147.596 206.208Z" fill="white"/>
</mask>
<g mask="url(#mask7_0_1)">
<path d="M149.581 196.258H147.596V207.215H149.581V196.258Z" fill="#F38F3F"/>
<path d="M152.076 196.258H149.58V207.215H152.076V196.258Z" fill="#F3903F"/>
<path d="M153.636 196.258H152.076V207.215H153.636V196.258Z" fill="#F3903F"/>
<path d="M154.442 196.258H153.637V207.215H154.442V196.258Z" fill="#F3913E"/>
</g>
<mask id="mask8_0_1" style="mask-type:luminance" maskUnits="userSpaceOnUse" x="164" y="196" width="8" height="12">
<path d="M169.051 198.293V207.067H167.004V198.293H164.287V196.41H171.74V198.293H169.051Z" fill="white"/>
</mask>
<g mask="url(#mask8_0_1)">
<path d="M164.576 196.402H164.287V207.059H164.576V196.402Z" fill="#F49738"/>
<path d="M166.136 196.402H164.576V207.059H166.136V196.402Z" fill="#F49837"/>
<path d="M167.696 196.402H166.137V207.059H167.696V196.402Z" fill="#F59937"/>
<path d="M169.261 196.402H167.701V207.059H169.261V196.402Z" fill="#F59A36"/>
<path d="M170.819 196.402H169.26V207.059H170.819V196.402Z" fill="#F59B35"/>
<path d="M171.739 196.402H170.826V207.059H171.739V196.402Z" fill="#F59C34"/>
</g>
<mask id="mask9_0_1" style="mask-type:luminance" maskUnits="userSpaceOnUse" x="180" y="196" width="9" height="12">
<path d="M185.606 196.406L188.754 207.063H186.689L186.128 205.072H182.64L182.09 207.063H180.025L183.173 196.406H185.606ZM183.145 203.189H185.612L184.364 198.868L183.145 203.189Z" fill="white"/>
</mask>
<g mask="url(#mask9_0_1)">
<path d="M183.326 198.875H183.145V203.197H183.326V198.875Z" fill="#F7A32D"/>
<path d="M184.886 198.875H183.326V203.197H184.886V198.875Z" fill="#F7A42C"/>
<path d="M185.607 198.875H184.887V203.197H185.607V198.875Z" fill="#F7A52B"/>
<path d="M180.196 196.406H180.025V207.063H180.196V196.406Z" fill="#F6A12F"/>
<path d="M181.761 196.406H180.201V207.063H181.761V196.406Z" fill="#F6A22E"/>
<path d="M183.321 196.406H181.762V207.063H183.321V196.406Z" fill="#F7A32D"/>
<path d="M184.886 196.406H183.326V207.063H184.886V196.406Z" fill="#F7A42C"/>
<path d="M186.446 196.406H184.887V207.063H186.446V196.406Z" fill="#F7A52B"/>
<path d="M188.011 196.406H186.451V207.063H188.011V196.406Z" fill="#F7A62A"/>
<path d="M188.755 196.406H188.012V207.063H188.755V196.406Z" fill="#F7A729"/>
</g>
<mask id="mask10_0_1" style="mask-type:luminance" maskUnits="userSpaceOnUse" x="196" y="196" width="10" height="12">
<path d="M202.014 202.985V207.069H199.921V203.014L196.773 196.406H198.929L200.976 200.858L203.024 196.406H205.145L202.014 202.985Z" fill="white"/>
</mask>
<g mask="url(#mask10_0_1)">
<path d="M197.386 196.406H196.773V207.063H197.386V196.406Z" fill="#F8AD25"/>
<path d="M198.946 196.406H197.387V207.063H198.946V196.406Z" fill="#F8AE24"/>
<path d="M200.511 196.406H198.951V207.063H200.511V196.406Z" fill="#F9AF23"/>
<path d="M202.069 196.406H200.51V207.063H202.069V196.406Z" fill="#F9B022"/>
<path d="M203.636 196.406H202.076V207.063H203.636V196.406Z" fill="#F9B121"/>
<path d="M205.151 196.406H203.637V207.063H205.151V196.406Z" fill="#F9B220"/>
</g>
<mask id="mask11_0_1" style="mask-type:luminance" maskUnits="userSpaceOnUse" x="220" y="196" width="9" height="12">
<path d="M225.811 196.406L228.959 207.063H226.895L226.333 205.072H222.845L222.295 207.063H220.23L223.378 196.406H225.811ZM223.344 203.189H225.811L224.564 198.868L223.344 203.189Z" fill="white"/>
</mask>
<g mask="url(#mask11_0_1)">
<path d="M224.263 198.875H223.344V203.197H224.263V198.875Z" fill="#FCC112"/>
<path d="M225.812 198.875H224.264V203.197H225.812V198.875Z" fill="#FCC211"/>
<path d="M221.138 196.406H220.23V207.063H221.138V196.406Z" fill="#FCBF14"/>
<path d="M222.696 196.406H221.137V207.063H222.696V196.406Z" fill="#FCC013"/>
<path d="M224.263 196.406H222.703V207.063H224.263V196.406Z" fill="#FCC112"/>
<path d="M225.823 196.406H224.264V207.063H225.823V196.406Z" fill="#FCC211"/>
<path d="M227.388 196.406H225.828V207.063H227.388V196.406Z" fill="#FCC310"/>
<path d="M228.946 196.406H227.387V207.063H228.946V196.406Z" fill="#FCC40F"/>
<path d="M228.959 196.406H228.953V207.063H228.959V196.406Z" fill="#FDC50E"/>
</g>
<mask id="mask12_0_1" style="mask-type:luminance" maskUnits="userSpaceOnUse" x="237" y="196" width="14" height="12">
<path d="M239.724 207.063L237.184 196.406H239.248L240.984 204.363L242.736 196.406H244.653L246.423 204.363L248.147 196.406H250.211L247.631 207.063H245.198L243.7 200.83L242.169 207.063H239.736H239.724Z" fill="white"/>
</mask>
<g mask="url(#mask12_0_1)">
<path d="M237.968 196.406H237.191V207.063H237.968V196.406Z" fill="#FCC610"/>
<path d="M238.836 196.406H237.969V207.063H238.836V196.406Z" fill="#FCC611"/>
<path d="M239.706 196.406H238.838V207.063H239.706V196.406Z" fill="#FCC612"/>
<path d="M240.567 196.406H239.699V207.063H240.567V196.406Z" fill="#FBC513"/>
<path d="M241.434 196.406H240.566V207.063H241.434V196.406Z" fill="#FBC514"/>
<path d="M242.303 196.406H241.436V207.063H242.303V196.406Z" fill="#FBC515"/>
<path d="M243.165 196.406H242.297V207.063H243.165V196.406Z" fill="#FBC516"/>
<path d="M244.032 196.406H243.164V207.063H244.032V196.406Z" fill="#FAC417"/>
<path d="M244.893 196.406H244.025V207.063H244.893V196.406Z" fill="#FAC418"/>
<path d="M245.762 196.406H244.895V207.063H245.762V196.406Z" fill="#FAC419"/>
<path d="M246.629 196.406H245.762V207.063H246.629V196.406Z" fill="#FAC41A"/>
<path d="M247.491 196.406H246.623V207.063H247.491V196.406Z" fill="#F9C31B"/>
<path d="M248.36 196.406H247.492V207.063H248.36V196.406Z" fill="#F9C31C"/>
<path d="M249.221 196.406H248.354V207.063H249.221V196.406Z" fill="#F9C31D"/>
<path d="M250.088 196.406H249.221V207.063H250.088V196.406Z" fill="#F9C31E"/>
<path d="M250.209 196.406H250.09V207.063H250.209V196.406Z" fill="#F9C21F"/>
</g>
<mask id="mask13_0_1" style="mask-type:luminance" maskUnits="userSpaceOnUse" x="258" y="196" width="10" height="12">
<path d="M264.014 196.406L267.162 207.063H265.098L264.536 205.072H261.048L260.498 207.063H258.434L261.581 196.406H264.014ZM261.553 203.189H264.02L262.772 198.868L261.553 203.189Z" fill="white"/>
</mask>
<g mask="url(#mask13_0_1)">
<path d="M262.199 198.875H261.553V203.197H262.199V198.875Z" fill="#F6BF2C"/>
<path d="M263.067 198.875H262.199V203.197H263.067V198.875Z" fill="#F5BF2D"/>
<path d="M263.934 198.875H263.066V203.197H263.934V198.875Z" fill="#F5BF2E"/>
<path d="M264.013 198.875H263.928V203.197H264.013V198.875Z" fill="#F5BE2F"/>
<path d="M258.74 196.406H258.434V207.063H258.74V196.406Z" fill="#F6C028"/>
<path d="M259.606 196.406H258.738V207.063H259.606V196.406Z" fill="#F6C029"/>
<path d="M260.469 196.406H259.602V207.063H260.469V196.406Z" fill="#F6C02A"/>
<path d="M261.336 196.406H260.469V207.063H261.336V196.406Z" fill="#F6BF2B"/>
<path d="M262.204 196.406H261.336V207.063H262.204V196.406Z" fill="#F6BF2C"/>
<path d="M263.067 196.406H262.199V207.063H263.067V196.406Z" fill="#F5BF2D"/>
<path d="M263.934 196.406H263.066V207.063H263.934V196.406Z" fill="#F5BF2E"/>
<path d="M264.795 196.406H263.928V207.063H264.795V196.406Z" fill="#F5BE2F"/>
<path d="M265.667 196.406H264.799V207.063H265.667V196.406Z" fill="#F5BE30"/>
<path d="M266.534 196.406H265.666V207.063H266.534V196.406Z" fill="#F4BE31"/>
<path d="M267.163 196.406H266.527V207.063H267.163V196.406Z" fill="#F4BE32"/>
</g>
<mask id="mask14_0_1" style="mask-type:luminance" maskUnits="userSpaceOnUse" x="277" y="196" width="8" height="12">
<path d="M280.469 203.012H278.972V207.067H277.055V196.41H281.03C282.987 196.41 284.269 197.63 284.269 199.705C284.269 201.203 283.645 202.229 282.397 202.779L284.416 207.067H282.352L280.469 203.012ZM278.972 198.293V201.112H280.991C281.927 201.112 282.386 200.664 282.386 199.773C282.386 198.781 281.927 198.287 280.991 198.287H278.972V198.293Z" fill="white"/>
</mask>
<g mask="url(#mask14_0_1)">
<path d="M279.517 198.289H278.973V201.108H279.517V198.289Z" fill="#F1BA41"/>
<path d="M280.378 198.289H279.51V201.108H280.378V198.289Z" fill="#F1BA42"/>
<path d="M281.245 198.289H280.377V201.108H281.245V198.289Z" fill="#F0BA43"/>
<path d="M282.112 198.289H281.244V201.108H282.112V198.289Z" fill="#F0B944"/>
<path d="M282.385 198.289H282.107V201.108H282.385V198.289Z" fill="#F0B945"/>
<path d="M277.781 196.402H277.055V207.059H277.781V196.402Z" fill="#F1BB3F"/>
<path d="M278.647 196.402H277.779V207.059H278.647V196.402Z" fill="#F1BA40"/>
<path d="M279.514 196.402H278.646V207.059H279.514V196.402Z" fill="#F1BA41"/>
<path d="M280.378 196.402H279.51V207.059H280.378V196.402Z" fill="#F1BA42"/>
<path d="M281.245 196.402H280.377V207.059H281.245V196.402Z" fill="#F0BA43"/>
<path d="M282.112 196.402H281.244V207.059H282.112V196.402Z" fill="#F0B944"/>
<path d="M282.975 196.402H282.107V207.059H282.975V196.402Z" fill="#F0B945"/>
<path d="M283.842 196.402H282.975V207.059H283.842V196.402Z" fill="#F0B946"/>
<path d="M284.416 196.402H283.838V207.059H284.416V196.402Z" fill="#EFB947"/>
</g>
<mask id="mask15_0_1" style="mask-type:luminance" maskUnits="userSpaceOnUse" x="294" y="196" width="7" height="12">
<path d="M294.666 196.404H300.542V198.287H296.577V200.646H299.044V202.529H296.577V205.172H300.542V207.055H294.666V196.398V196.404Z" fill="white"/>
</mask>
<g mask="url(#mask15_0_1)">
<path d="M295.091 196.406H294.666V207.063H295.091V196.406Z" fill="#EDB653"/>
<path d="M295.96 196.406H295.092V207.063H295.96V196.406Z" fill="#ECB554"/>
<path d="M296.827 196.406H295.959V207.063H296.827V196.406Z" fill="#ECB555"/>
<path d="M297.694 196.406H296.826V207.063H297.694V196.406Z" fill="#ECB556"/>
<path d="M298.557 196.406H297.689V207.063H298.557V196.406Z" fill="#ECB557"/>
<path d="M299.424 196.406H298.557V207.063H299.424V196.406Z" fill="#EBB458"/>
<path d="M300.286 196.406H299.418V207.063H300.286V196.406Z" fill="#EBB459"/>
<path d="M300.548 196.406H300.287V207.063H300.548V196.406Z" fill="#EBB45A"/>
</g>
<path d="M132.492 206.089C131.573 206.844 130.694 207.207 129.827 207.207C127.87 207.207 126.537 205.987 126.537 204.104C126.537 202.755 127.059 202.29 127.91 201.626L128.063 201.473C127.342 200.679 126.945 199.913 126.945 199.006C126.945 197.191 128.647 196.641 129.951 196.641C131.721 196.641 132.628 197.423 132.674 198.994L130.745 199.686C130.66 198.824 130.348 198.399 129.827 198.399C129.259 198.399 128.976 198.694 128.976 199.306C128.976 199.647 129.486 200.327 130.49 201.331C130.558 201.444 131.125 202.012 132.277 203.101C132.447 202.635 132.617 202.012 132.657 201.161H134.613V201.841C134.613 202.919 134.313 203.798 133.848 204.649L135.918 207.003H133.298L132.492 206.095V206.089ZM131.159 204.558L129.259 202.658L128.965 202.885C128.726 203.186 128.596 203.481 128.596 203.753C128.596 204.501 129.305 205.256 129.957 205.256C130.439 205.256 130.836 205.029 131.159 204.564V204.558Z" fill="#F1863E"/>
<defs>
<linearGradient id="paint0_linear_0_1" x1="124.383" y1="2.36883" x2="169.291" y2="114.343" gradientUnits="userSpaceOnUse">
<stop offset="0.3" stop-color="#EBB45A"/>
<stop offset="1" stop-color="#DC5647"/>
</linearGradient>
</defs>
</svg>
