<svg width="61" height="62" viewBox="0 0 61 62" fill="none" xmlns="http://www.w3.org/2000/svg">
<path d="M50.5462 0.953125H10.3409C4.62977 0.953125 0 5.58235 0 11.2928V51.4933C0 57.2038 4.62977 61.833 10.3409 61.833H50.5462C56.2573 61.833 60.8871 57.2038 60.8871 51.4933V11.2928C60.8871 5.58235 56.2573 0.953125 50.5462 0.953125Z" fill="url(#paint0_linear_1116_1586)"/>
<path d="M47.9164 22.5415C47.6847 20.2089 46.7747 18.141 45.0375 16.4866C43.2175 14.7496 40.9673 13.972 38.5186 13.8397C34.3491 13.6081 24.4219 13.4757 20.9474 14.0382C16.9765 14.6834 14.3623 16.9995 13.2537 20.9368C12.4099 23.9643 12.5754 37.8938 13.0717 40.8717C13.7501 44.9579 16.1657 47.5718 20.2028 48.614C22.999 49.3419 36.7813 49.2426 39.8753 48.7463C43.962 48.0846 46.5927 45.6858 47.6516 41.6492C48.4624 38.539 48.1811 25.3374 47.8998 22.5415H47.9164ZM44.6404 40.2926C44.1606 43.4028 42.1089 45.3218 38.9818 45.6527C36.1195 45.967 23.3133 46.1325 20.6661 45.4046C18.1181 44.6932 16.6621 42.9396 16.2485 40.3919C15.8514 37.9435 15.7521 25.7344 16.2485 22.4588C16.7117 19.3817 18.7799 17.4627 21.8739 17.1153C25.0175 16.7679 36.3511 16.7182 39.3624 17.1814C42.4564 17.6612 44.3756 19.7126 44.7231 22.8393C45.0375 25.7509 45.1367 37.1494 44.6569 40.2761L44.6404 40.2926ZM30.4444 22.2768C25.4146 22.2768 21.3279 26.3465 21.3279 31.3757C21.3279 36.4049 25.3981 40.4912 30.4279 40.4912C35.4577 40.4912 39.5444 36.4215 39.5444 31.3923C39.5444 26.3631 35.4742 22.2768 30.4444 22.2768ZM30.3782 37.2817C27.1188 37.2486 24.5046 34.5851 24.5377 31.3426C24.5708 28.0836 27.2346 25.4697 30.4775 25.5028C33.7369 25.5359 36.3511 28.1994 36.318 31.4419C36.2849 34.701 33.6211 37.3148 30.3782 37.2817ZM42.0428 21.946C42.0428 23.1205 41.0831 24.0801 39.9084 24.0801C38.7337 24.0801 37.774 23.1205 37.774 21.946C37.774 20.7714 38.7337 19.8119 39.9084 19.8119C41.0831 19.8119 42.0428 20.7714 42.0428 21.946Z" fill="white"/>
<path d="M47.9164 22.5415C47.6847 20.2089 46.7747 18.141 45.0375 16.4866C43.2175 14.7496 40.9673 13.972 38.5186 13.8397C34.3491 13.6081 24.4219 13.4757 20.9474 14.0382C16.9765 14.6834 14.3623 16.9995 13.2537 20.9368C12.4099 23.9643 12.5754 37.8938 13.0717 40.8717C13.7501 44.9579 16.1657 47.5718 20.2028 48.614C22.999 49.3419 36.7813 49.2426 39.8753 48.7463C43.962 48.0846 46.5927 45.6858 47.6516 41.6492C48.4624 38.539 48.1811 25.3374 47.8998 22.5415H47.9164ZM44.6404 40.2926C44.1606 43.4028 42.1089 45.3218 38.9818 45.6527C36.1195 45.967 23.3133 46.1325 20.6661 45.4046C18.1181 44.6932 16.6621 42.9396 16.2485 40.3919C15.8514 37.9435 15.7521 25.7344 16.2485 22.4588C16.7117 19.3817 18.7799 17.4627 21.8739 17.1153C25.0175 16.7679 36.3511 16.7182 39.3624 17.1814C42.4564 17.6612 44.3756 19.7126 44.7231 22.8393C45.0375 25.7509 45.1367 37.1494 44.6569 40.2761L44.6404 40.2926ZM30.4444 22.2768C25.4146 22.2768 21.3279 26.3465 21.3279 31.3757C21.3279 36.4049 25.3981 40.4912 30.4279 40.4912C35.4577 40.4912 39.5444 36.4215 39.5444 31.3923C39.5444 26.3631 35.4742 22.2768 30.4444 22.2768ZM30.3782 37.2817C27.1188 37.2486 24.5046 34.5851 24.5377 31.3426C24.5708 28.0836 27.2346 25.4697 30.4775 25.5028C33.7369 25.5359 36.3511 28.1994 36.318 31.4419C36.2849 34.701 33.6211 37.3148 30.3782 37.2817ZM42.0428 21.946C42.0428 23.1205 41.0831 24.0801 39.9084 24.0801C38.7337 24.0801 37.774 23.1205 37.774 21.946C37.774 20.7714 38.7337 19.8119 39.9084 19.8119C41.0831 19.8119 42.0428 20.7714 42.0428 21.946Z" fill="white"/>
<defs>
<linearGradient id="paint0_linear_1116_1586" x1="30.4435" y1="61.833" x2="30.4435" y2="0.953125" gradientUnits="userSpaceOnUse">
<stop stop-color="#DC5647"/>
<stop offset="1" stop-color="#F5AC41"/>
</linearGradient>
</defs>
</svg>
