<svg width="284" height="38" viewBox="0 0 284 38" fill="none" xmlns="http://www.w3.org/2000/svg">
<path d="M59.65 2.5V23.35C59.65 24.75 59.65 25.85 59.5 27.8C59.15 33.65 55.55 37.7 47.85 37.7C40.7 37.7 36.9 33.5 36.7 26.8L36.65 24.9H42.15L42.25 26.8C42.5 31.5 44.65 33.5 48.35 33.5C52 33.5 53.8 31.2 54.1 27.45C54.15 26.4 54.15 25.2 54.15 23.6V2.5H59.65ZM81.168 37L80.668 33.15L79.318 36C77.518 37.25 75.218 37.7 72.718 37.7C68.018 37.7 64.168 35 64.168 30.05C64.168 24.15 68.868 20.95 78.918 20.95H80.618V20.3C80.618 19.3 80.618 18.4 80.518 17.4C80.368 15.25 79.018 13.75 75.868 13.75C72.668 13.75 71.018 15.55 70.718 18.85H65.218C65.568 13.05 69.918 9.75 75.968 9.75C82.818 9.75 85.518 12.65 85.968 17.15C86.068 18.25 86.118 19.65 86.118 20.9V30.25C86.118 32.25 86.218 34.05 86.618 37H81.168ZM74.718 33.7C78.168 33.7 80.618 31.35 80.618 27.05V24.6C74.168 24.1 69.968 25.55 69.968 29.6C69.968 32.4 71.818 33.7 74.718 33.7ZM103.964 9.75C110.664 9.75 114.914 13.8 115.564 19.65H110.014C109.214 15.6 107.064 13.75 103.814 13.75C99.9641 13.75 96.9141 16.8 96.9141 23.45C96.9141 30.65 99.9141 33.7 103.614 33.7C106.764 33.7 109.014 31.8 109.814 28.2H115.414C114.164 34.55 109.564 37.7 103.314 37.7C96.3641 37.7 91.1141 33.3 91.1141 23.85C91.1141 14.8 97.0141 9.75 103.964 9.75ZM128.161 26.1L125.811 28.7V37H120.311V0.249999H125.811V23.25L137.411 10.45H144.161L132.061 22.9L144.311 37H137.161L128.161 26.1ZM186.654 17.3V21.7H181.904V36.55C178.804 37.25 175.254 37.7 171.404 37.7C163.354 37.7 157.604 35.6 157.604 28.3C157.604 23.9 160.704 20.4 165.654 19.4C161.854 18.4 159.204 15.6 159.204 11.65C159.204 5.65 164.204 1.8 171.704 1.8C174.054 1.8 175.704 1.95 177.454 2.3V6.5C175.404 6.1 173.904 6 171.654 6C167.504 6 165.154 8.1 165.154 11.6C165.154 15.75 167.654 17.1 170.904 17.25C171.804 17.3 172.904 17.3 173.954 17.3H176.404V12.15H181.904V17.3H186.654ZM163.554 27.5C163.554 31.95 166.104 33.5 171.504 33.5C173.404 33.5 174.654 33.4 176.404 33.1V21.7H173.754C172.654 21.7 171.804 21.7 170.804 21.75C165.704 22.2 163.554 24.5 163.554 27.5ZM227.161 32.6V37H200.511V32.8L220.511 6.85H201.911V2.5H226.911V6.8L207.061 32.6H227.161ZM247.135 37L246.635 33.15L245.285 36C243.485 37.25 241.185 37.7 238.685 37.7C233.985 37.7 230.135 35 230.135 30.05C230.135 24.15 234.835 20.95 244.885 20.95H246.585V20.3C246.585 19.3 246.585 18.4 246.485 17.4C246.335 15.25 244.985 13.75 241.835 13.75C238.635 13.75 236.985 15.55 236.685 18.85H231.185C231.535 13.05 235.885 9.75 241.935 9.75C248.785 9.75 251.485 12.65 251.935 17.15C252.035 18.25 252.085 19.65 252.085 20.9V30.25C252.085 32.25 252.185 34.05 252.585 37H247.135ZM240.685 33.7C244.135 33.7 246.585 31.35 246.585 27.05V24.6C240.135 24.1 235.935 25.55 235.935 29.6C235.935 32.4 237.785 33.7 240.685 33.7ZM266.931 26.1L264.581 28.7V37H259.081V0.249999H264.581V23.25L276.181 10.45H282.931L270.831 22.9L283.081 37H275.931L266.931 26.1Z" fill="#E36D51"/>
<path d="M23.8124 14.9489H29.0622C29.0622 22.03 26.3152 25.3873 21.3097 25.3873C18.7458 25.3873 16.9145 24.4717 13.8013 22.8846C10.9323 21.3585 9.58935 20.7481 8.2464 20.7481C6.10988 20.7481 5.4384 22.3962 5.4384 25.3873H0.18868C0.18868 18.3063 2.87459 14.9489 7.88014 14.9489C10.566 14.9489 12.4584 15.9256 15.4495 17.4517C18.0744 18.8557 19.4784 19.5882 21.0044 19.5882C22.9578 19.5882 23.8124 18.3063 23.8124 14.9489Z" fill="#E36D51"/>
</svg>