<svg width="61" height="62" viewBox="0 0 61 62" fill="none" xmlns="http://www.w3.org/2000/svg">
<path d="M50.5462 0.953125H10.3409C4.62977 0.953125 0 5.58235 0 11.2928V51.4933C0 57.2038 4.62977 61.833 10.3409 61.833H50.5462C56.2573 61.833 60.8871 57.2038 60.8871 51.4933V11.2928C60.8871 5.58235 56.2573 0.953125 50.5462 0.953125Z" fill="url(#paint0_linear_1116_1582)"/>
<path d="M15.6839 26.276H22.0208V46.6079H15.6839V26.276ZM18.8606 16.168C20.8791 16.168 22.5171 17.8058 22.5171 19.8241C22.5171 21.8424 20.8791 23.4967 18.8606 23.4967C16.842 23.4967 15.1875 21.8589 15.1875 19.8241C15.1875 17.7892 16.8255 16.168 18.8606 16.168Z" fill="white"/>
<path d="M25.9931 26.2785H32.0487V29.0578H32.1315C32.9753 27.453 35.0434 25.7656 38.1209 25.7656C44.524 25.7656 45.6987 29.9676 45.6987 35.4435V46.5938H39.3783V36.7008C39.3783 34.3351 39.3287 31.3077 36.0858 31.3077C32.8429 31.3077 32.2969 33.8719 32.2969 36.5354V46.5938H25.9766V26.2619L25.9931 26.2785Z" fill="white"/>
<defs>
<linearGradient id="paint0_linear_1116_1582" x1="30.4435" y1="61.833" x2="30.4435" y2="0.953125" gradientUnits="userSpaceOnUse">
<stop stop-color="#DC5647"/>
<stop offset="1" stop-color="#F5AC41"/>
</linearGradient>
</defs>
</svg>
