<svg width="318" height="35" viewBox="0 0 318 35" fill="none" xmlns="http://www.w3.org/2000/svg">
<path d="M2.58822 26.3335C5.32284 28.061 8.9241 29.5015 12.2853 29.5015C15.6464 29.5015 17.2333 27.774 17.2802 25.707C17.2802 24.0732 16.3199 22.539 13.5852 21.3386L7.91692 18.9378C3.92918 17.2103 1.19456 14.6631 1.19456 10.3416C1.19456 4.67326 5.99624 0.644531 12.4785 0.644531C16.7532 0.644531 20.7409 1.99135 23.2354 3.28546C23.1418 5.11244 22.2751 6.98042 20.981 8.18084C18.4865 6.98042 15.0726 5.87369 12.5312 5.87369C9.41012 5.87369 7.77638 7.60111 7.77638 9.52178C7.77638 11.1555 8.92995 12.2096 11.1844 13.1699L16.8527 15.5707C21.2211 17.4446 24.0552 20.5657 24.0552 24.7876C24.0552 30.5028 20.0207 34.7775 11.8578 34.7775C7.92277 34.7775 3.40802 33.4833 0 31.223C0.193238 29.3492 1.34681 27.3817 2.59408 26.3277L2.58822 26.3335Z" fill="black"/>
<path d="M34.6608 26.6676L32.4063 34.157C31.5924 34.3502 30.6321 34.3971 29.619 34.3971C28.606 34.3971 27.3119 34.2507 26.5448 33.9638L26.3047 33.63L37.0148 1.31235C38.0688 1.16596 39.6557 1.07227 40.7624 1.07227C41.7696 1.07227 43.4502 1.16595 44.4574 1.35919L54.9742 33.6768C54.0607 34.2038 52.5265 34.4908 51.2793 34.4908C49.2122 34.4908 48.205 33.7705 47.4379 31.0359L46.0911 26.6676C45.3709 26.6676 44.2173 26.7144 43.7371 26.7144H37.0148C36.5346 26.7144 35.4279 26.7144 34.6608 26.6676ZM36.2477 21.5789C36.9211 21.5789 37.9283 21.5321 38.4084 21.5321H42.5367C42.97 21.5321 43.8835 21.5789 44.5511 21.5789L43.1106 16.6836C42.2966 13.949 41.2367 10.2482 40.5165 7.36715H40.2296C39.7494 9.81484 38.7422 13.2756 38.1156 15.4832L36.2418 21.5789H36.2477Z" fill="black"/>
<path d="M62.3105 34.3504C61.397 34.3504 60.1029 34.3036 59.043 34.1103V1.60528L59.3767 1.31836H79.1632C79.3564 2.03861 79.4501 3.04578 79.4501 3.81288C79.4501 5.92679 78.3434 6.78759 75.9425 6.78759H65.4257C65.4725 8.37448 65.4725 9.95551 65.4725 11.4429V15.0441H76.4227C76.6628 15.8112 76.7565 16.9648 76.7565 17.685C76.7565 18.4053 76.6628 19.5589 76.4227 20.3728H65.4725V34.1045C64.4185 34.2977 63.2649 34.3445 62.3046 34.3445L62.3105 34.3504Z" fill="black"/>
<path d="M104.549 31.1356C104.215 33.15 102.769 34.2099 100.421 34.2099H86.9293C84.6222 34.2099 83.2344 32.7694 83.2344 30.3685V1.65212L83.5682 1.31836H103.589C103.782 2.2787 103.829 3.14533 103.829 3.86558C103.829 4.58583 103.636 5.78626 103.302 6.74659H89.5703C89.5703 7.99386 89.6171 8.81366 89.6171 10.0609V15.009C90.8175 14.9621 92.0648 14.9621 92.7382 14.9621H100.854C101.141 15.7761 101.241 16.8828 101.241 17.6031C101.241 18.3233 101.147 19.43 100.854 20.244H89.6171V25.9123C89.6171 26.9664 89.5703 27.7861 89.5703 28.887C90.5774 28.8402 91.6373 28.7933 92.9314 28.7933H104.696C104.696 29.3203 104.696 30.3275 104.549 31.1473V31.1356Z" fill="black"/>
<path d="M116.077 10.2015C116.077 8.90735 116.124 7.99385 116.124 6.64704H116.077C115.403 6.64704 113.869 6.69389 113.196 6.69389H107.867C107.674 5.73356 107.627 4.77322 107.627 4.00613C107.627 3.28587 107.674 2.2787 107.867 1.31836H130.821C131.015 1.99177 131.155 2.99894 131.155 3.81288C131.155 5.92679 130.048 6.69389 127.7 6.69389H125.446C124.772 6.69389 123.238 6.64704 122.565 6.64704H122.518C122.518 7.99385 122.565 8.90149 122.565 10.2015V34.1162C121.458 34.3094 120.258 34.3562 119.297 34.3562C118.337 34.3562 117.183 34.3094 116.083 34.1162V10.2015H116.077Z" fill="black"/>
<path d="M153.197 1.31813C154.064 1.12489 154.971 1.07805 155.838 1.07805C156.945 1.07805 158.093 1.22443 159.006 1.51136L159.246 1.89784L150.029 23.8919V34.1218C149.022 34.315 147.775 34.3619 146.814 34.3619C146.001 34.3619 144.607 34.315 143.6 34.1218V23.7045L134.383 2.09693C135.63 1.37668 137.024 0.943359 138.371 0.943359C140.145 0.943359 141.011 1.7573 141.779 3.63113L144.806 11.0269C145.526 12.9007 146.293 15.202 146.873 17.4623H147.16C147.734 15.3015 148.694 12.6606 149.414 10.8337L153.209 1.32398L153.197 1.31813Z" fill="black"/>
<path d="M171.795 26.3335C174.53 28.061 178.131 29.5015 181.492 29.5015C184.853 29.5015 186.44 27.774 186.487 25.707C186.487 24.0732 185.527 22.539 182.792 21.3386L177.124 18.9378C173.136 17.2103 170.402 14.6631 170.402 10.3416C170.402 4.67326 175.203 0.644531 181.686 0.644531C185.96 0.644531 189.948 1.99135 192.442 3.28546C192.349 5.11244 191.482 6.98042 190.188 8.18084C187.693 6.98042 184.28 5.87369 181.738 5.87369C178.617 5.87369 176.983 7.60111 176.983 9.52178C176.983 11.1555 178.137 12.2096 180.391 13.1699L186.06 15.5707C190.428 17.4446 193.262 20.5657 193.262 24.7876C193.262 30.5028 189.228 34.7775 181.065 34.7775C177.13 34.7775 172.615 33.4833 169.207 31.223C169.4 29.3492 170.554 27.3817 171.801 26.3277L171.795 26.3335Z" fill="black"/>
<path d="M203.678 10.2015C203.678 8.90735 203.725 7.99385 203.725 6.64704H203.678C203.005 6.64704 201.471 6.69389 200.797 6.69389H195.469C195.275 5.73356 195.229 4.77322 195.229 4.00613C195.229 3.28587 195.275 2.2787 195.469 1.31836H218.423C218.616 1.99177 218.757 2.99894 218.757 3.81288C218.757 5.92679 217.65 6.69389 215.302 6.69389H213.047C212.374 6.69389 210.84 6.64704 210.166 6.64704H210.12C210.12 7.99385 210.166 8.90149 210.166 10.2015V34.1162C209.06 34.3094 207.859 34.3562 206.899 34.3562C205.939 34.3562 204.785 34.3094 203.684 34.1162V10.2015H203.678Z" fill="black"/>
<path d="M239.452 19.9979C241.18 20.6245 242.334 22.2524 243.007 24.2257L244.781 29.0743C245.261 30.4211 245.982 31.7152 247.036 32.5818C246.222 33.7354 244.442 34.5025 242.761 34.5025C240.407 34.5025 239.593 33.2084 238.68 30.708L236.665 24.9928C235.945 23.0722 234.985 21.538 232.197 21.538H229.269V34.116C228.215 34.3093 226.962 34.3561 226.055 34.3561C225.241 34.3561 223.894 34.3093 222.887 34.116V1.55828L223.22 1.27136C227.062 1.17766 230.71 1.07812 234.171 1.07812C240.846 1.07812 245.455 4.39245 245.455 11.2085C245.455 15.7701 242.574 18.8912 239.452 19.9979ZM229.275 16.5372C230.956 16.4435 232.783 16.3908 233.69 16.3908C237.866 16.3908 238.826 13.8436 238.826 11.2026C238.826 8.56171 237.866 6.01448 233.69 6.01448C232.537 6.01448 230.763 6.01449 229.275 5.96764V16.5313V16.5372Z" fill="black"/>
<path d="M257.118 26.6676L254.863 34.157C254.049 34.3502 253.089 34.3971 252.076 34.3971C251.063 34.3971 249.769 34.2507 249.002 33.9638L248.762 33.63L259.472 1.31235C260.526 1.16596 262.113 1.07227 263.219 1.07227C264.227 1.07227 265.907 1.16595 266.914 1.35919L277.431 33.6768C276.518 34.2038 274.984 34.4908 273.736 34.4908C271.669 34.4908 270.662 33.7705 269.895 31.0359L268.548 26.6676C267.828 26.6676 266.674 26.7144 266.194 26.7144H259.472C258.992 26.7144 257.885 26.7144 257.118 26.6676ZM258.705 21.5789C259.378 21.5789 260.385 21.5321 260.865 21.5321H264.994C265.427 21.5321 266.335 21.5789 267.008 21.5789L265.568 16.6836C264.754 13.949 263.694 10.2482 262.974 7.36715H262.687C262.206 9.81484 261.199 13.2756 260.573 15.4832L258.699 21.5789H258.705Z" fill="black"/>
<path d="M278.059 1.69874C279.113 1.21857 280.366 0.931641 281.513 0.931641C283.721 0.931641 284.635 1.74558 285.068 4.4392L287.562 18.7506C288.043 21.5379 288.716 25.8594 288.956 28.1607C289.05 28.7345 289.102 28.7345 289.436 28.7345L293.998 1.99152C295.292 1.75144 296.926 1.65774 298.173 1.65774C299.42 1.65774 301.101 1.75144 302.301 1.99152L306.476 28.1607C306.57 28.7345 306.716 28.7345 306.957 28.7345C307.29 25.9999 308.011 21.5789 308.543 18.651L311.711 1.31812C312.672 1.12488 313.726 1.07803 314.639 1.07803C315.6 1.07803 316.8 1.22442 317.667 1.51135L318 1.89783L311.372 34.0691C309.884 34.2623 307.484 34.356 305.803 34.356C303.882 34.356 302.249 34.0222 301.868 31.3813L299.9 19.8104C299.326 16.3556 298.653 11.8877 298.267 8.33324H297.88C297.4 11.8877 296.68 16.256 296.053 19.8104L293.506 34.0691C291.972 34.2623 289.811 34.356 288.078 34.356C286.011 34.356 284.43 34.0222 283.903 31.3813L278.047 1.70458L278.059 1.69874Z" fill="black"/>
</svg>
