<svg width="60" height="77" viewBox="0 0 60 77" fill="none" xmlns="http://www.w3.org/2000/svg">
<path d="M55.8077 12.7297C54.4756 12.2297 52.8447 11.767 50.9368 11.3602C45.8575 10.2764 39.2779 9.63047 32.216 9.52178C31.7274 9.51247 31.2387 9.50936 30.747 9.50626C30.5011 9.50315 30.2552 9.50315 30.0093 9.50315C29.7635 9.50315 29.5176 9.50315 29.2717 9.50626C28.78 9.50936 28.2913 9.51247 27.8027 9.52178C27.5288 9.52489 27.2549 9.5311 26.981 9.53731C22.8696 9.62426 18.9356 9.89754 15.3875 10.3323L14.653 8.41003L12.2596 2.15567C12.2596 2.15567 12.2596 2.13703 12.2502 2.12772C12.2347 2.06561 12.2129 2.0004 12.1911 1.93829C11.578 0.261346 9.34952 -0.465328 7.20822 0.311033C5.07003 1.0905 3.83131 3.07798 4.44444 4.75493C4.47246 4.82946 4.50358 4.90399 4.53782 4.97852L6.8752 11.0869L7.1522 11.8136C6.05354 12.0993 5.07314 12.4036 4.21413 12.7266C1.73359 13.6551 0.286337 14.7234 0 15.86V66.7862C0 73.5964 15.0016 77 30 77C44.9984 77 60 73.5964 60 66.7862V15.7917C59.6732 14.6799 58.2353 13.6396 55.8077 12.7297ZM21.3072 11.7546C21.3477 11.7484 21.3881 11.7453 21.4286 11.7453C23.9434 11.5527 26.6729 11.4472 29.5798 11.4472C30.7034 11.4472 31.8021 11.4627 32.8696 11.4937C32.9599 11.4937 33.0501 11.5 33.1373 11.5C46.1002 11.9006 54.765 14.4563 55.4591 16.9531C54.821 19.071 47.4043 21.2355 36.0878 21.8504H36.0598C34.1363 21.9342 32.1164 21.9808 30.0093 21.9808C26.2807 21.9808 22.8198 21.838 19.6919 21.5833L16.1438 12.3074C17.7404 12.0838 19.4647 11.8943 21.3072 11.7546ZM5.53066 3.21152C5.29101 2.61527 6.15313 1.70538 7.45721 1.18056C8.76128 0.655737 10.0125 0.711635 10.2552 1.30788C10.498 1.90413 9.63586 2.81402 8.33178 3.33884C7.0277 3.86677 5.77342 3.80776 5.53066 3.21152ZM8.02677 14.1023L10.3641 20.2107C6.42702 19.2853 4.04606 18.1145 3.69748 16.9531C3.97137 15.9656 5.4902 14.9687 8.02677 14.1023ZM3.44227 20.3971C3.80642 20.5679 4.20168 20.7324 4.62185 20.8939C5.87613 21.3722 7.36695 21.8162 9.08497 22.2168C9.7977 22.3814 10.5416 22.5367 11.3103 22.6827L11.8799 24.1764L17.0806 37.772C11.0707 38.803 6.23094 40.5297 3.44227 42.6476V20.3971ZM27.8307 56.6345L24.3386 64.2118C23.3333 66.3949 20.7439 67.3514 18.5559 66.3452L10.9617 62.8609C8.77373 61.8578 7.81513 59.2741 8.82353 57.091L12.3156 49.5137C13.3209 47.3306 15.9104 46.3741 18.0984 47.3803L25.6925 50.8646C27.8805 51.8676 28.8391 54.4514 27.8307 56.6345ZM36.7165 69.6494L32.0324 69.8606C30.6847 69.9227 29.5394 68.8793 29.4802 67.5315L29.2686 62.8578C29.2064 61.51 30.2521 60.3703 31.6029 60.3113L36.287 60.1002C37.6346 60.0381 38.78 61.0815 38.8391 62.4293L39.0507 67.103C39.113 68.4507 38.0672 69.5904 36.7165 69.6494ZM46.0069 54.2588L39.4367 56.6842C37.5443 57.3829 35.4435 56.4171 34.7432 54.529L32.3125 47.9734C31.6122 46.0853 32.5801 43.9891 34.4725 43.2904L41.0426 40.865C42.935 40.1663 45.0358 41.1321 45.7361 43.0202L48.1668 49.5758C48.8671 51.4639 47.8992 53.5601 46.0069 54.2588ZM56.3088 42.4519C51.5904 39.0639 41.5873 36.7286 30.0093 36.7286C28.4874 36.7286 26.9904 36.769 25.5307 36.8466L21.4006 26.0552L20.5696 23.8752C23.573 24.1081 26.7507 24.2323 30.0093 24.2323C37.9023 24.2323 45.3315 23.518 50.9368 22.2168C52.6517 21.8193 54.1457 21.3753 55.3968 20.8939C55.7174 20.7697 56.0193 20.6455 56.3088 20.5182V42.4519Z" fill="url(#paint0_linear_1202_924)"/>
<defs>
<linearGradient id="paint0_linear_1202_924" x1="13.7473" y1="1.27993" x2="38.2967" y2="62.6284" gradientUnits="userSpaceOnUse">
<stop offset="0.3" stop-color="#EBB45A"/>
<stop offset="1" stop-color="#DC5647"/>
</linearGradient>
</defs>
</svg>
