<svg width="514" height="51" viewBox="0 0 514 51" fill="none" xmlns="http://www.w3.org/2000/svg">
<path d="M54.43 1.7V50H43.44V28.58C43.44 23.89 43.44 17.52 43.58 12.55C42.6 17.52 40.99 23.89 39.59 28.51L33.5 50H21.88L15.65 28.51C14.32 23.89 12.71 17.59 11.8 12.62C11.94 17.59 11.94 23.89 11.94 28.58V50H0.95V1.7H18.17L27.9 39.57L37.63 1.7H54.43ZM100.433 41.39V50H64.5926V1.7H99.7326V10.24H75.5826V21.51H98.1226V30.05H75.5826V41.39H100.433ZM144.601 38.03C145.231 43.7 146.211 47.2 148.171 50H136.201C135.011 46.64 134.311 43.77 133.891 39.71C133.261 34.46 131.231 31.38 127.591 31.1C126.261 31.03 125.071 31.03 123.741 31.03H119.401V50H108.411V1.7H126.751C129.621 1.7 131.511 1.77 134.031 2.05C141.031 2.89 146.841 6.39 146.841 14.86C146.841 21.02 143.341 25.01 137.251 26.76C142.151 28.58 144.041 32.43 144.601 38.03ZM119.401 22.98H125.071C126.611 22.98 127.801 22.98 128.781 22.91C132.351 22.56 135.361 21.02 135.361 16.61C135.361 12.2 132.771 10.8 129.201 10.38C128.221 10.31 127.031 10.24 125.491 10.24H119.401V22.98ZM176.382 0.719996C189.752 0.719996 196.682 7.93 197.662 17.45L197.732 18.15H186.742L186.602 17.45C185.482 11.85 182.052 8.84 176.242 8.84C169.242 8.84 164.272 14.79 164.272 25.5C164.272 37.61 169.592 42.86 176.172 42.86C181.842 42.86 185.272 39.43 186.392 33.69L186.532 32.99H197.522L197.452 33.69C196.332 44.61 188.002 50.98 175.752 50.98C162.522 50.98 152.722 41.95 152.722 26.13C152.722 9.89 163.082 0.719996 176.382 0.719996ZM248.805 1.7V50H237.885V30.61H216.745V50H205.755V1.7H216.745V22H237.885V1.7H248.805ZM285.608 36.35H269.858L265.378 50H253.688L271.118 1.7H284.698L301.918 50H290.018L285.608 36.35ZM277.768 11.22L272.588 27.74H282.878L277.768 11.22ZM351.368 50H336.738L317.838 15.42C318.188 20.53 318.258 25.5 318.258 29V50H307.268V1.7H321.338L340.798 37.26C340.518 32.22 340.448 26.76 340.448 23.19V1.7H351.368V50ZM385.066 1.98C396.266 3.24 405.226 10.31 405.226 25.22C405.226 40.13 396.196 48.39 384.996 49.72C382.546 50 381.426 50 378.836 50H361.546V1.7H378.906C381.496 1.7 382.616 1.7 385.066 1.98ZM382.336 41.25C389.126 40.48 393.676 34.67 393.676 25.36C393.676 16.26 389.196 11.22 382.406 10.45C380.796 10.31 379.536 10.24 377.506 10.24H372.536V41.39H377.436C379.466 41.39 380.726 41.39 382.336 41.25ZM424.284 50H413.294V1.7H424.284V50ZM450.867 0.719996C462.907 0.719996 468.227 7.44 469.277 16.19H458.217C457.657 11.71 455.137 8.84 450.517 8.84C447.087 8.84 444.637 10.45 444.637 13.95C444.637 17.59 447.087 19.55 454.857 21.37C465.497 23.89 470.117 28.93 470.117 36.56C470.117 45.94 461.367 50.98 451.707 50.98C439.877 50.98 432.037 45.94 431.197 35.51H442.257C443.237 40.48 447.087 42.86 451.497 42.86C455.487 42.86 458.637 40.76 458.637 37.47C458.637 34.11 456.397 31.8 449.817 30.26C439.457 27.67 433.157 24.24 433.157 15C433.157 5.97 441.487 0.719996 450.867 0.719996ZM513.392 41.39V50H477.552V1.7H512.692V10.24H488.542V21.51H511.082V30.05H488.542V41.39H513.392Z" fill="black"/>
</svg>
