<svg width="62" height="29" viewBox="0 0 62 29" fill="none" xmlns="http://www.w3.org/2000/svg">
<path d="M2.14283 25.1882C3.19141 25.8506 4.57229 26.4029 5.86112 26.4029C7.14994 26.4029 7.75843 25.7406 7.77639 24.948C7.77639 24.3215 7.40816 23.7332 6.35958 23.2729L4.18609 22.3523C2.65701 21.69 1.60844 20.7132 1.60844 19.0562C1.60844 16.8827 3.44962 15.3379 5.93521 15.3379C7.57431 15.3379 9.10339 15.8543 10.0599 16.3505C10.024 17.0511 9.69166 17.7674 9.19544 18.2277C8.23893 17.7674 6.9299 17.343 5.95542 17.343C4.75865 17.343 4.1322 18.0054 4.1322 18.7418C4.1322 19.3683 4.57454 19.7724 5.43899 20.1407L7.61248 21.0613C9.28751 21.7798 10.3742 22.9765 10.3742 24.5954C10.3742 26.7869 8.82721 28.426 5.69721 28.426C4.18834 28.426 2.45718 27.9298 1.15039 27.0631C1.22449 26.3446 1.66682 25.5901 2.14508 25.186L2.14283 25.1882Z" fill="black"/>
<path d="M14.3689 19.0038C14.3689 18.5076 14.3869 18.1573 14.3869 17.6409H14.3689C14.1107 17.6409 13.5224 17.6589 13.2642 17.6589H11.221C11.1469 17.2906 11.1289 16.9224 11.1289 16.6283C11.1289 16.3521 11.1469 15.9659 11.221 15.5977H20.0227C20.0968 15.8559 20.1507 16.2421 20.1507 16.5542C20.1507 17.3647 19.7263 17.6589 18.8259 17.6589H17.9615C17.7033 17.6589 17.115 17.6409 16.8568 17.6409H16.8388C16.8388 18.1573 16.8568 18.5054 16.8568 19.0038V28.1738C16.4324 28.2479 15.9721 28.2659 15.6039 28.2659C15.2356 28.2659 14.7933 28.2479 14.3712 28.1738V19.0038H14.3689Z" fill="black"/>
<path d="M28.0825 22.7586C28.7449 22.9989 29.1872 23.6231 29.4455 24.3797L30.1258 26.2389C30.3099 26.7553 30.5861 27.2515 30.9903 27.5838C30.6782 28.0262 29.9956 28.3203 29.3511 28.3203C28.4485 28.3203 28.1364 27.8241 27.7861 26.8653L27.0138 24.6739C26.7376 23.9374 26.3693 23.3491 25.3006 23.3491H24.1779V28.1721C23.7737 28.2462 23.2932 28.2642 22.9452 28.2642C22.6331 28.2642 22.1167 28.2462 21.7305 28.1721V15.688L21.8584 15.578C23.3314 15.5421 24.7302 15.5039 26.0572 15.5039C28.6169 15.5039 30.384 16.7748 30.384 19.3883C30.384 21.1375 29.2793 22.3342 28.0825 22.7586ZM24.1801 21.4316C24.8245 21.3957 25.5251 21.3755 25.8731 21.3755C27.474 21.3755 27.8423 20.3987 27.8423 19.3861C27.8423 18.3734 27.474 17.3967 25.8731 17.3967C25.4308 17.3967 24.7504 17.3967 24.1801 17.3788V21.4294V21.4316Z" fill="black"/>
<path d="M34.8604 25.3163L33.9959 28.1881C33.6838 28.2622 33.3156 28.2802 32.9271 28.2802C32.5387 28.2802 32.0424 28.2241 31.7483 28.114L31.6562 27.9861L35.763 15.594C36.1671 15.5379 36.7756 15.502 37.2 15.502C37.5862 15.502 38.2306 15.5379 38.6168 15.612L42.6494 28.004C42.2992 28.2061 41.7109 28.3161 41.2326 28.3161C40.44 28.3161 40.0538 28.0399 39.7597 26.9914L39.2433 25.3163C38.9671 25.3163 38.5248 25.3343 38.3406 25.3343H35.763C35.5789 25.3343 35.1545 25.3343 34.8604 25.3163ZM35.4688 23.3651C35.7271 23.3651 36.1133 23.3472 36.2974 23.3472H37.8803C38.0465 23.3472 38.3945 23.3651 38.6527 23.3651L38.1004 21.488C37.7883 20.4395 37.3819 19.0204 37.1057 17.9157H36.9957C36.8116 18.8542 36.4254 20.1812 36.1851 21.0277L35.4666 23.3651H35.4688Z" fill="black"/>
<path d="M42.8893 15.7414C43.2934 15.5573 43.7739 15.4473 44.214 15.4473C45.0605 15.4473 45.4108 15.7594 45.5769 16.7922L46.5334 22.2798C46.7176 23.3486 46.9758 25.0057 47.0678 25.8881C47.1038 26.1081 47.124 26.1081 47.252 26.1081L49.0011 15.8537C49.4973 15.7616 50.1237 15.7257 50.602 15.7257C51.0803 15.7257 51.7247 15.7616 52.185 15.8537L53.7859 25.8881C53.8218 26.1081 53.878 26.1081 53.97 26.1081C54.098 25.0596 54.3742 23.3643 54.5785 22.2417L55.7932 15.5955C56.1615 15.5214 56.5656 15.5034 56.9159 15.5034C57.2841 15.5034 57.7444 15.5595 58.0767 15.6696L58.2047 15.8177L55.663 28.1536C55.0927 28.2277 54.1721 28.2637 53.5277 28.2637C52.7912 28.2637 52.1648 28.1357 52.0188 27.123L51.2644 22.6862C51.0443 21.3615 50.7861 19.6483 50.6379 18.2854H50.4897C50.3056 19.6483 50.0294 21.3233 49.7892 22.6862L48.8125 28.1536C48.2242 28.2277 47.3957 28.2637 46.731 28.2637C45.9384 28.2637 45.3322 28.1357 45.1301 27.123L42.8848 15.7436L42.8893 15.7414Z" fill="black"/>
<path d="M0.992441 9.85032C2.04101 10.5127 3.4219 11.065 4.71073 11.065C5.99955 11.065 6.60804 10.4027 6.626 9.61006C6.626 8.98361 6.25777 8.39534 5.20919 7.93504L3.0357 7.01445C1.50662 6.35208 0.45805 5.37535 0.45805 3.71828C0.45805 1.54479 2.29923 0 4.78482 0C6.42392 0 7.953 0.516431 8.90951 1.01265C8.87359 1.7132 8.54128 2.42947 8.04506 2.88976C7.08854 2.42947 5.77951 2.0051 4.80503 2.0051C3.60826 2.0051 2.98181 2.66747 2.98181 3.40394C2.98181 4.03039 3.42415 4.43455 4.2886 4.80279L6.46209 5.72338C8.13712 6.44189 9.22386 7.63865 9.22386 9.25754C9.22386 11.449 7.67682 13.0881 4.54682 13.0881C3.03795 13.0881 1.30679 12.5919 0 11.7252C0.0740963 11.0067 0.516428 10.2522 0.994686 9.84807L0.992441 9.85032Z" fill="black"/>
<path d="M13.29 9.97845L12.4256 12.8502C12.1135 12.9243 11.7452 12.9423 11.3568 12.9423C10.9684 12.9423 10.4721 12.8862 10.178 12.7761L10.0859 12.6482L14.1927 0.256122C14.5968 0.199989 15.2053 0.164062 15.6297 0.164062C16.0159 0.164062 16.6603 0.199986 17.0465 0.274082L21.0791 12.6661C20.7289 12.8682 20.1406 12.9782 19.6623 12.9782C18.8697 12.9782 18.4835 12.7021 18.1894 11.6535L17.6729 9.97845C17.3968 9.97845 16.9544 9.99641 16.7703 9.99641H14.1927C14.0085 9.99641 13.5842 9.99641 13.29 9.97845ZM13.8985 8.02724C14.1567 8.02724 14.5429 8.00928 14.7271 8.00928H16.31C16.4762 8.00928 16.8265 8.02724 17.0824 8.02724L16.5301 6.15014C16.218 5.10157 15.8116 3.68251 15.5354 2.5778H15.4254C15.2412 3.51636 14.855 4.84336 14.6148 5.68985L13.8963 8.02724H13.8985Z" fill="black"/>
<path d="M23.8935 12.9238C23.5433 12.9238 23.047 12.9058 22.6406 12.8317V0.367832L22.7686 0.257812H30.3556C30.4297 0.533989 30.4656 0.920183 30.4656 1.21432C30.4656 2.02489 30.0413 2.35496 29.1207 2.35496H25.088C25.106 2.96345 25.106 3.56969 25.106 4.14V5.52089H29.3048C29.3969 5.81503 29.4328 6.25736 29.4328 6.53354C29.4328 6.80971 29.3969 7.25205 29.3048 7.56415H25.106V12.8295C24.7018 12.9036 24.2595 12.9215 23.8913 12.9215L23.8935 12.9238Z" fill="black"/>
<path d="M40.0891 11.6911C39.9611 12.4635 39.4065 12.8699 38.5061 12.8699H33.3328C32.4482 12.8699 31.916 12.3175 31.916 11.3969V0.385792L32.044 0.257812H39.7208C39.7949 0.626048 39.8129 0.958353 39.8129 1.23453C39.8129 1.51071 39.7388 1.97101 39.6108 2.33924H34.3455C34.3455 2.8175 34.3634 3.13185 34.3634 3.61011V5.50741C34.8237 5.48945 35.302 5.48945 35.5602 5.48945H38.6722C38.7823 5.80156 38.8204 6.22593 38.8204 6.50211C38.8204 6.77828 38.7845 7.20265 38.6722 7.51475H34.3634V9.68825C34.3634 10.0924 34.3455 10.4068 34.3455 10.8289C34.7317 10.8109 35.1381 10.7929 35.6343 10.7929H40.1452C40.1452 10.995 40.1452 11.3812 40.0891 11.6956V11.6911Z" fill="black"/>
<path d="M44.5076 3.66399C44.5076 3.16777 44.5256 2.8175 44.5256 2.30107H44.5076C44.2494 2.30107 43.6611 2.31903 43.4029 2.31903H41.3596C41.2855 1.9508 41.2676 1.58256 41.2676 1.28842C41.2676 1.01225 41.2855 0.626048 41.3596 0.257812H50.1614C50.2355 0.516027 50.2894 0.902221 50.2894 1.21432C50.2894 2.02489 49.865 2.31903 48.9646 2.31903H48.1002C47.8419 2.31903 47.2537 2.30107 46.9954 2.30107H46.9775C46.9775 2.8175 46.9954 3.16553 46.9954 3.66399V12.834C46.5711 12.9081 46.1108 12.926 45.7425 12.926C45.3743 12.926 44.932 12.9081 44.5099 12.834V3.66399H44.5076Z" fill="black"/>
<path d="M58.7436 0.256986C59.0759 0.18289 59.4239 0.164927 59.7562 0.164927C60.1806 0.164927 60.6207 0.221058 60.971 0.33108L61.063 0.479273L57.5288 8.91277V12.8354C57.1426 12.9095 56.6644 12.9274 56.2962 12.9274C55.9841 12.9274 55.4497 12.9095 55.0635 12.8354V8.84092L51.5293 0.555614C52.0076 0.279437 52.5419 0.113281 53.0584 0.113281C53.7387 0.113281 54.071 0.425383 54.3652 1.14389L55.526 3.97976C55.8022 4.69827 56.0963 5.58069 56.3186 6.44739H56.4286C56.6487 5.61886 57.0169 4.60621 57.2931 3.90567L58.7481 0.259227L58.7436 0.256986Z" fill="black"/>
</svg>
