<svg width="100%" height="100%" preserveAspectRatio="xMidYMid slice" viewBox="0 0 390 796" fill="none" xmlns="http://www.w3.org/2000/svg">
<mask id="mask0_1698_6345" style="mask-type:alpha" maskUnits="userSpaceOnUse" x="0" y="0" width="390" height="796">
<rect width="390" height="796" fill="url(#paint0_linear_1698_6345)"/>
</mask>
<g mask="url(#mask0_1698_6345)">
<path d="M1.28463 797H391.436C417.393 708.242 709.609 646.595 647.31 606.623C569.438 556.657 593.276 497.204 505.074 475.699C416.871 454.195 424.817 645.204 313.967 573.734C203.118 502.265 151.07 745.136 20.7528 692.641C-83.5012 650.644 -28.2487 743.029 1.28463 797Z" fill="url(#paint1_linear_1698_6345)"/>
<g opacity="0.2">
<path d="M350.606 634.136L387.783 629.485C398.497 628.145 408.418 634.615 409.943 643.936L415.236 676.281C416.761 685.602 409.313 694.245 398.599 695.585L361.422 700.236C350.708 701.576 340.787 695.107 339.262 685.785L333.969 653.44C332.444 644.119 339.892 635.477 350.606 634.136Z" fill="white"/>
<path d="M113.738 716.681L146.135 709.827C155.471 707.851 164.869 712.834 167.126 720.955L174.957 749.137C177.214 757.258 171.476 765.443 162.14 767.418L129.743 774.273C120.408 776.248 111.01 771.266 108.753 763.145L100.921 734.963C98.664 726.841 104.403 718.657 113.738 716.681Z" fill="white"/>
<path d="M269.542 720.454L321.129 722.467C335.995 723.047 347.491 733.98 346.805 746.886L344.426 791.671C343.74 804.577 331.133 814.569 316.267 813.989L264.68 811.977C249.814 811.396 238.318 800.464 239.004 787.558L241.383 742.773C242.069 729.867 254.676 719.874 269.542 720.454Z" fill="white"/>
<path d="M28.4382 735.031L77.1944 732.707C91.2447 732.037 103.241 741.381 103.99 753.577L106.586 795.899C107.335 808.095 96.5513 818.525 82.5009 819.194L33.7447 821.519C19.6944 822.189 7.6977 812.845 6.9494 800.649L4.35271 758.327C3.60441 746.131 14.3878 735.701 28.4382 735.031Z" fill="white"/>
<path d="M379.385 752.122L405.719 753.792C413.307 754.274 419.002 760.018 418.438 766.622L416.482 789.54C415.918 796.144 409.309 801.108 401.72 800.626L375.387 798.956C367.798 798.474 362.104 792.73 362.667 786.126L364.624 763.208C365.188 756.604 371.796 751.64 379.385 752.122Z" fill="white"/>
<path d="M177.284 759.62L203.66 758.478C211.26 758.149 217.72 763.244 218.087 769.858L219.362 792.808C219.729 799.422 213.866 805.05 206.265 805.379L179.89 806.52C172.289 806.849 165.83 801.754 165.462 795.141L164.187 772.191C163.82 765.577 169.684 759.949 177.284 759.62Z" fill="white"/>
</g>
</g>
<svg width="560" height="1122" viewBox="0 0 560 1122" fill="none" xmlns="http://www.w3.org/2000/svg">
<ellipse opacity="0.2" cx="13.0322" cy="11.3674" rx="13.0322" ry="11.3674" transform="matrix(-0.999987 0.00508783 0.00508783 0.999987 547.064 627)" fill="white"/>
<ellipse opacity="0.2" cx="13.0322" cy="11.3674" rx="13.0322" ry="11.3674" transform="matrix(-0.999987 0.00508783 0.00508783 0.999987 510.062 412)" fill="white"/>
<ellipse opacity="0.2" cx="13.0322" cy="11.3674" rx="13.0322" ry="11.3674" transform="matrix(-0.999987 0.00508783 0.00508783 0.999987 557.828 782.799)" fill="white"/>
<ellipse opacity="0.2" cx="13.0322" cy="11.3674" rx="13.0322" ry="11.3674" transform="matrix(-0.999987 0.00508783 0.00508783 0.999987 262.826 691.801)" fill="white"/>
<ellipse opacity="0.2" cx="13.0322" cy="11.3674" rx="13.0322" ry="11.3674" transform="matrix(-0.999987 0.00508783 0.00508783 0.999987 262.064 389)" fill="white"/>
<ellipse opacity="0.2" cx="8.17707" cy="7.13247" rx="8.17707" ry="7.13247" transform="matrix(-0.999987 0.00508783 0.00508783 0.999987 214.119 626.803)" fill="white"/>
<ellipse opacity="0.2" cx="8.17707" cy="7.13247" rx="8.17707" ry="7.13247" transform="matrix(-0.999987 0.00508783 0.00508783 0.999987 480.355 335)" fill="white"/>
<ellipse opacity="0.2" cx="8.17707" cy="7.13247" rx="8.17707" ry="7.13247" transform="matrix(-0.999987 0.00508783 0.00508783 0.999987 320.117 610.801)" fill="white"/>
<ellipse opacity="0.2" cx="8.17707" cy="7.13247" rx="8.17707" ry="7.13247" transform="matrix(-0.999987 0.00508783 0.00508783 0.999987 488.117 691.801)" fill="white"/>
<ellipse opacity="0.2" cx="8.17707" cy="7.13247" rx="8.17707" ry="7.13247" transform="matrix(-0.999987 0.00508783 0.00508783 0.999987 198.355 349)" fill="white"/>
<ellipse opacity="0.2" cx="8.17707" cy="7.13247" rx="8.17707" ry="7.13247" transform="matrix(-0.999987 0.00508783 0.00508783 0.999987 160.354 60)" fill="white"/>
<ellipse opacity="0.2" cx="8.17707" cy="7.13247" rx="8.17707" ry="7.13247" transform="matrix(-0.999987 0.00508783 0.00508783 0.999987 472.354 615)" fill="white"/>
<ellipse opacity="0.2" cx="8.17707" cy="7.13247" rx="8.17707" ry="7.13247" transform="matrix(-0.999987 0.00508783 0.00508783 0.999987 373.354 374)" fill="white"/>
<ellipse opacity="0.2" cx="13.0322" cy="11.3674" rx="13.0322" ry="11.3674" transform="matrix(-0.999987 0.00508783 0.00508783 0.999987 168.068 541.637)" fill="white"/>
<ellipse opacity="0.2" cx="13.0322" cy="11.3674" rx="13.0322" ry="11.3674" transform="matrix(-0.999987 0.00508783 0.00508783 0.999987 377.066 1097)" fill="white"/>
<ellipse opacity="0.2" cx="13.0322" cy="11.3674" rx="13.0322" ry="11.3674" transform="matrix(-0.999987 0.00508783 0.00508783 0.999987 448.83 1000.74)" fill="white"/>
<ellipse opacity="0.2" cx="7.97244" cy="6.95398" rx="7.97244" ry="6.95398" transform="matrix(-0.999987 0.00508783 0.00508783 0.999987 188.945 1095)" fill="white"/>
<ellipse opacity="0.2" cx="8.17707" cy="7.13247" rx="8.17707" ry="7.13247" transform="matrix(-0.999987 0.00508783 0.00508783 0.999987 390.119 1038.74)" fill="white"/>
<ellipse opacity="0.2" cx="8.17707" cy="7.13247" rx="8.17707" ry="7.13247" transform="matrix(-0.999987 0.00508783 0.00508783 0.999987 393.355 981)" fill="white"/>
<ellipse opacity="0.2" cx="5.3662" cy="4.68068" rx="5.3662" ry="4.68068" transform="matrix(-0.999987 0.00508783 0.00508783 0.999987 452.498 1056.74)" fill="white"/>
<ellipse opacity="0.2" cx="5.3662" cy="4.68068" rx="5.3662" ry="4.68068" transform="matrix(-0.999987 0.00508783 0.00508783 0.999987 520.734 1108)" fill="white"/>
<ellipse opacity="0.2" cx="8.17707" cy="7.13247" rx="8.17707" ry="7.13247" transform="matrix(-0.999987 0.00508783 0.00508783 0.999987 491.922 938.449)" fill="white"/>
<ellipse opacity="0.2" cx="8.17707" cy="7.13247" rx="8.17707" ry="7.13247" transform="matrix(-0.999987 0.00508783 0.00508783 0.999987 22.2676 1003.84)" fill="white"/>
<ellipse opacity="0.2" cx="8.17707" cy="7.13247" rx="8.17707" ry="7.13247" transform="matrix(-0.999987 0.00508783 0.00508783 0.999987 317.354 1079.99)" fill="white"/>
<ellipse opacity="0.2" cx="13.0322" cy="11.3674" rx="13.0322" ry="11.3674" transform="matrix(-0.999987 0.00508783 0.00508783 0.999987 550.062 1)" fill="white"/>
<ellipse opacity="0.2" cx="8.17707" cy="7.13247" rx="8.17707" ry="7.13247" transform="matrix(-0.999987 0.00508783 0.00508783 0.999987 65.7109 974.365)" fill="white"/>
</svg>

<defs>
<linearGradient id="paint0_linear_1698_6345" x1="195" y1="0" x2="195" y2="796" gradientUnits="userSpaceOnUse">
<stop stop-color="#E99F59"/>
<stop offset="0.4" stop-color="#FACA7C"/>
<stop offset="0.9" stop-color="#FFFEFC"/>
</linearGradient>
<linearGradient id="paint1_linear_1698_6345" x1="308" y1="474" x2="308" y2="797" gradientUnits="userSpaceOnUse">
<stop offset="0.32" stop-color="#FCD679"/>
<stop offset="1" stop-color="#DD5748"/>
</linearGradient>
</defs>

</svg>
