<svg width="252" height="249" viewBox="0 0 252 249" fill="none" xmlns="http://www.w3.org/2000/svg">
<path d="M124.187 248.809C192.195 248.809 248.471 192.456 248.471 124.452C248.471 56.3521 192.1 0 124.092 0C56.1801 0 0 56.3521 0 124.452C0 192.456 56.2755 248.809 124.187 248.809ZM124.187 231.043C65.2415 231.043 17.8365 183.479 17.8365 124.452C17.8365 65.3303 65.146 17.8607 124.092 17.8607C183.134 17.8607 230.634 65.3303 230.634 124.452C230.634 183.479 183.23 231.043 124.187 231.043Z" fill="white" fill-opacity="0.85"/>
<path d="M100.914 172.59L171.115 130.851C176.075 127.89 175.98 121.204 171.115 118.243L100.914 76.3135C95.9544 73.3527 89.373 75.7405 89.373 81.2802V167.718C89.373 173.258 95.5729 175.837 100.914 172.59Z" fill="white" fill-opacity="0.85"/>
</svg>
