<svg width="1920" height="1025" viewBox="0 0 1920 1025" fill="none" xmlns="http://www.w3.org/2000/svg">
<path d="M627.5 745.5C280 852 -288.117 1172.72 -184.116 1260.22C-80.1161 1347.72 1888.88 1260.22 2088.88 1260.22C1888.88 1260.22 2214.02 275.579 1888.88 383.224C1749.02 429.531 1737.26 562.827 1610.38 637.724C1280.65 832.368 993.586 633.304 627.5 745.5Z" fill="url(#paint0_linear_0_1)"/>
<ellipse opacity="0.2" cx="46.3369" cy="40.4173" rx="46.3369" ry="40.4173" transform="matrix(-1 0 0 1 1754.68 112)" fill="white"/>
<ellipse opacity="0.2" cx="46.3369" cy="40.4173" rx="46.3369" ry="40.4173" transform="matrix(-1 0 0 1 1384.1 827.678)" fill="white"/>
<ellipse opacity="0.2" cx="46.3369" cy="40.4173" rx="46.3369" ry="40.4173" transform="matrix(-1 0 0 1 1862 607.363)" fill="white"/>
<ellipse opacity="0.2" cx="61.7825" cy="53.8898" rx="61.7825" ry="53.8898" transform="matrix(-1 0 0 1 830.779 694.539)" fill="white"/>
<ellipse opacity="0.2" cx="29.0741" cy="25.3599" rx="29.0741" ry="25.3599" transform="matrix(-1 0 0 1 1516.75 857.793)" fill="white"/>
<ellipse opacity="0.2" cx="19.0799" cy="16.6424" rx="19.0799" ry="16.6424" transform="matrix(-1 0 0 1 1535.83 763.486)" fill="white"/>
<ellipse opacity="0.2" cx="29.0741" cy="25.3599" rx="29.0741" ry="25.3599" transform="matrix(-1 0 0 1 1845.15 282)" fill="white"/>
<ellipse opacity="0.2" cx="29.0741" cy="25.3599" rx="29.0741" ry="25.3599" transform="matrix(-1 0 0 1 176.15 104)" fill="white"/>
<ellipse opacity="0.2" cx="29.0741" cy="25.3599" rx="29.0741" ry="25.3599" transform="matrix(-1 0 0 1 860.15 142)" fill="white"/>
<ellipse opacity="0.2" cx="29.0741" cy="25.3599" rx="29.0741" ry="25.3599" transform="matrix(-1 0 0 1 331.15 0)" fill="white"/>
<g opacity="0.2">
<path d="M1623.46 798.781L1755.73 782.878C1793.84 778.295 1829 801.532 1834.26 834.779L1852.49 950.151C1857.74 983.398 1831.1 1014.07 1792.99 1018.65L1660.72 1034.55C1622.6 1039.13 1587.44 1015.9 1582.19 982.65L1563.96 867.278C1558.7 834.031 1585.34 803.364 1623.46 798.781Z" fill="white"/>
<path d="M454.067 795.808L569.377 771.964C602.607 765.093 635.931 783.02 643.808 812.005L671.143 912.584C679.021 941.569 658.468 970.636 625.239 977.507L509.928 1001.35C476.698 1008.22 443.374 990.294 435.497 961.31L408.162 860.73C400.285 831.745 420.837 802.679 454.067 795.808Z" fill="white"/>
<path d="M975.1 800.208L1158.48 808.315C1211.33 810.651 1252 849.822 1249.33 895.806L1240.06 1055.37C1237.39 1101.36 1192.38 1136.74 1139.54 1134.4L956.152 1126.3C903.306 1123.96 862.631 1084.79 865.303 1038.81L874.575 879.239C877.247 833.255 922.254 797.872 975.1 800.208Z" fill="white"/>
<path d="M148.476 804.654L321.872 797.253C371.84 795.12 414.325 828.638 416.765 872.117L425.23 1023C427.669 1066.47 389.139 1103.45 339.171 1105.58L165.775 1112.99C115.807 1115.12 73.3219 1081.6 70.8825 1038.12L62.4173 887.243C59.9779 843.764 98.5076 806.787 148.476 804.654Z" fill="white"/>
<path d="M1397.93 926.926L1491.53 933.356C1518.5 935.209 1538.65 955.783 1536.52 979.31L1529.15 1060.95C1527.02 1084.48 1503.44 1102.05 1476.46 1100.2L1382.87 1093.77C1355.89 1091.91 1335.75 1071.34 1337.87 1047.81L1345.24 966.17C1347.37 942.643 1370.96 925.073 1397.93 926.926Z" fill="white"/>
<path d="M679.228 949.984L773.026 946.393C800.056 945.358 822.931 963.633 824.117 987.21L828.234 1069.03C829.42 1092.6 808.47 1112.55 781.439 1113.59L687.641 1117.18C660.611 1118.22 637.737 1099.94 636.55 1076.36L632.433 994.548C631.247 970.971 652.197 951.019 679.228 949.984Z" fill="white"/>
</g>
<defs>
<linearGradient id="paint0_linear_0_1" x1="1023.5" y1="470" x2="1033" y2="1139.5" gradientUnits="userSpaceOnUse">
<stop stop-color="#FCD679"/>
<stop offset="1" stop-color="#DD5748"/>
</linearGradient>
</defs>
</svg>
