<svg width="305" height="689" viewBox="0 0 305 689" fill="none" xmlns="http://www.w3.org/2000/svg">
<g opacity="0.9">
<path d="M7.02353 631.431L5.99732 634.014L8.49437 635.234L54.9674 657.944L57.8769 659.366L59.0725 656.356L299.535 51.1381L300.561 48.5552L298.064 47.335L251.591 24.6247L248.681 23.203L247.486 26.2124L7.02353 631.431Z" fill="url(#paint0_linear_1202_1936)" stroke="white" stroke-width="6"/>
<path d="M283.474 14.9878L283.471 14.9867C269.509 8.4438 253.152 12.3656 247.745 25.416C242.405 38.3054 250.538 53.5988 264.487 60.15C278.473 66.7188 294.81 62.7686 300.215 49.7218C305.555 36.8324 297.422 21.539 283.474 14.9878ZM288.619 36.5783C288.505 36.8289 287.782 37.7001 284.967 37.6529C282.373 37.6094 278.906 36.7284 275.276 34.864C271.652 33.0033 268.818 30.6448 267.135 28.4575C265.303 26.0777 265.411 24.7538 265.573 24.3979C265.687 24.1473 266.41 23.2761 269.226 23.3233C271.819 23.3668 275.287 24.2479 278.917 26.1122C282.54 27.973 285.374 30.3314 287.058 32.5188C288.889 34.8986 288.781 36.2224 288.619 36.5783Z" fill="#EAAB59" stroke="white" stroke-width="6"/>
<path d="M59.0951 656.474C64.3381 643.46 55.9806 628.148 41.9566 621.747C27.9326 615.347 11.7496 619.459 6.50664 632.473C1.26366 645.487 9.62113 660.799 23.6451 667.199C37.6691 673.6 53.8521 669.488 59.0951 656.474Z" fill="#DC5647" stroke="white" stroke-width="6"/>
</g>
<defs>
<linearGradient id="paint0_linear_1202_1936" x1="174.19" y1="22.332" x2="132.368" y2="660.237" gradientUnits="userSpaceOnUse">
<stop stop-color="#EBB45B"/>
<stop offset="1" stop-color="#DC5748"/>
</linearGradient>
</defs>
</svg>
