<svg width="305" height="689" viewBox="0 0 305 689" fill="none" xmlns="http://www.w3.org/2000/svg">
<g opacity="0.6">
<path d="M7.02353 631.431L5.99732 634.014L8.49437 635.234L54.9674 657.944L57.8769 659.366L59.0725 656.356L299.535 51.1381L300.561 48.5552L298.064 47.335L251.591 24.6247L248.681 23.203L247.486 26.2124L7.02353 631.431Z" fill="url(#paint0_linear_0_1)" stroke="white" stroke-width="6"/>
<path d="M283.474 14.9878L283.471 14.9867C269.509 8.4438 253.152 12.3656 247.745 25.416C242.405 38.3054 250.538 53.5988 264.487 60.15C278.473 66.7188 294.81 62.7686 300.215 49.7218C305.555 36.8324 297.422 21.539 283.474 14.9878ZM288.619 36.5783C288.505 36.8289 287.782 37.7001 284.967 37.6529C282.373 37.6094 278.906 36.7284 275.276 34.864C271.652 33.0033 268.818 30.6448 267.135 28.4575C265.303 26.0777 265.411 24.7538 265.573 24.3979C265.687 24.1473 266.41 23.2761 269.226 23.3233C271.819 23.3668 275.287 24.2479 278.917 26.1122C282.54 27.973 285.374 30.3314 287.058 32.5188C288.889 34.8986 288.781 36.2224 288.619 36.5783Z" fill="#EAAB59" stroke="white" stroke-width="6"/>
<path d="M59.0951 656.474C64.3381 643.46 55.9806 628.148 41.9566 621.747C27.9326 615.347 11.7496 619.459 6.50664 632.473C1.26366 645.487 9.62113 660.799 23.6451 667.199C37.6691 673.6 53.8521 669.488 59.0951 656.474Z" fill="#DC5647" stroke="white" stroke-width="6"/>
</g>
<path d="M9.81153 632.539L56.2845 655.249L296.747 50.0303L250.274 27.3201L9.81153 632.539Z" fill="url(#paint1_linear_0_1)"/>
<path d="M282.198 17.7033C269.251 11.6359 255.063 15.5903 250.517 26.5642C245.971 37.5382 252.797 51.3451 265.762 57.4345C278.728 63.524 292.897 59.5475 297.444 48.5736C301.99 37.5996 295.164 23.7927 282.198 17.7033ZM291.35 37.8205C289.579 41.7123 281.779 41.5766 273.905 37.5326C266.031 33.4887 261.072 27.0475 262.843 23.1557C264.613 19.264 272.413 19.3996 280.287 23.4436C288.162 27.4875 293.12 33.9287 291.35 37.8205Z" fill="#EAAB59"/>
<path d="M56.3659 655.228C60.8033 644.214 53.8502 630.47 40.8356 624.53C27.821 618.59 13.6733 622.704 9.23585 633.719C4.79842 644.733 11.7516 658.477 24.7662 664.417C37.7808 670.356 51.9285 666.243 56.3659 655.228Z" fill="#DC5647"/>
<defs>
<linearGradient id="paint0_linear_0_1" x1="174.19" y1="22.332" x2="132.368" y2="660.237" gradientUnits="userSpaceOnUse">
<stop stop-color="#EBB45B"/>
<stop offset="1" stop-color="#DC5748"/>
</linearGradient>
<linearGradient id="paint1_linear_0_1" x1="174.19" y1="22.332" x2="132.368" y2="660.237" gradientUnits="userSpaceOnUse">
<stop stop-color="#EBB45B"/>
<stop offset="1" stop-color="#DC5748"/>
</linearGradient>
</defs>
</svg>
