<svg width="301" height="689" viewBox="0 0 301 689" fill="none" xmlns="http://www.w3.org/2000/svg">
<path d="M9.81153 632.539L56.2845 655.249L296.747 50.0303L250.274 27.3201L9.81153 632.539Z" fill="url(#paint0_linear_1202_1944)"/>
<path d="M282.198 17.7033C269.251 11.6359 255.063 15.5903 250.517 26.5642C245.971 37.5382 252.797 51.3451 265.762 57.4345C278.728 63.524 292.897 59.5475 297.444 48.5736C301.99 37.5996 295.164 23.7927 282.198 17.7033ZM291.35 37.8205C289.579 41.7123 281.779 41.5766 273.905 37.5326C266.031 33.4887 261.072 27.0475 262.843 23.1557C264.613 19.264 272.413 19.3996 280.287 23.4436C288.162 27.4875 293.12 33.9287 291.35 37.8205Z" fill="#EAAB59"/>
<path d="M56.3659 655.228C60.8033 644.214 53.8502 630.47 40.8356 624.53C27.821 618.59 13.6733 622.704 9.23585 633.719C4.79842 644.733 11.7516 658.477 24.7662 664.417C37.7808 670.356 51.9285 666.243 56.3659 655.228Z" fill="#DC5647"/>
<defs>
<linearGradient id="paint0_linear_1202_1944" x1="174.19" y1="22.332" x2="132.368" y2="660.237" gradientUnits="userSpaceOnUse">
<stop stop-color="#EBB45B"/>
<stop offset="1" stop-color="#DC5748"/>
</linearGradient>
</defs>
</svg>
