<svg width="61" height="62" viewBox="0 0 61 62" fill="none" xmlns="http://www.w3.org/2000/svg">
<path d="M50.5462 0.953125H10.3409C4.62977 0.953125 0 5.58235 0 11.2928V51.4933C0 57.2038 4.62977 61.833 10.3409 61.833H50.5462C56.2573 61.833 60.8871 57.2038 60.8871 51.4933V11.2928C60.8871 5.58235 56.2573 0.953125 50.5462 0.953125Z" fill="url(#paint0_linear_1116_1590)"/>
<path d="M36.2498 39.2956V24.2118C36.2498 24.2118 38.0116 27.0465 44.3794 27.2196C44.7191 27.2288 45 26.9592 45 26.6313V22.3684C45 22.0513 44.7381 21.8 44.4096 21.7816C39.4702 21.5119 37.1244 17.8543 36.8942 14.5002C36.8736 14.1891 36.5911 13.9531 36.2689 13.9531H31.2327C30.8978 13.9531 30.6248 14.2151 30.6248 14.54V38.5187C30.6248 41.1236 28.5631 43.3899 25.868 43.5124C22.7873 43.6534 20.2827 41.1006 20.6637 38.0835C20.9335 35.9521 22.7048 34.2069 24.9078 33.9111C25.3459 33.8529 25.7728 33.8483 26.1871 33.8927C26.5537 33.9326 26.8759 33.669 26.8759 33.3135V29.04C26.8759 28.7366 26.6362 28.4731 26.322 28.4547C25.6903 28.4148 25.0427 28.4286 24.3856 28.5006C19.5272 29.0339 15.6053 32.8293 15.0672 37.5212C14.3578 43.7101 19.3574 48.949 25.6252 48.949C31.493 48.949 36.2498 44.3567 36.2498 38.6919" fill="white"/>
<defs>
<linearGradient id="paint0_linear_1116_1590" x1="30.4435" y1="61.833" x2="30.4435" y2="0.953125" gradientUnits="userSpaceOnUse">
<stop stop-color="#DC5647"/>
<stop offset="1" stop-color="#F5AC41"/>
</linearGradient>
</defs>
</svg>
