<svg width="1762" height="1033" viewBox="0 0 1762 1033" fill="none" xmlns="http://www.w3.org/2000/svg">
<ellipse opacity="0.2" cx="29.0741" cy="25.3599" rx="29.0741" ry="25.3599" transform="matrix(-1 0 0 1 1014.15 670)" fill="white"/>
<ellipse opacity="0.2" cx="46.3369" cy="40.4173" rx="46.3369" ry="40.4173" transform="matrix(-1 0 0 1 1687.67 326)" fill="white"/>
<ellipse opacity="0.2" cx="29.0741" cy="25.3599" rx="29.0741" ry="25.3599" transform="matrix(-1 0 0 1 1378.15 43)" fill="white"/>
<ellipse opacity="0.2" cx="46.3369" cy="40.4173" rx="46.3369" ry="40.4173" transform="matrix(-1 0 0 1 170.6719 774)" fill="white"/>
<ellipse opacity="0.2" cx="29.0741" cy="25.3599" rx="29.0741" ry="25.3599" transform="matrix(-1 0 0 1 140.1484 277)" fill="white"/>
<ellipse opacity="0.2" cx="29.0741" cy="25.3599" rx="29.0741" ry="25.3599" transform="matrix(-1 0 0 1 250.148 -15)" fill="white"/>
<ellipse opacity="0.2" cx="29.0741" cy="25.3599" rx="29.0741" ry="25.3599" transform="matrix(-1 0 0 1 200.148 544)" fill="white"/>
<ellipse opacity="0.2" cx="29.0741" cy="25.3599" rx="29.0741" ry="25.3599" transform="matrix(-1 0 0 1 1741.15 592)" fill="white"/>
<ellipse opacity="0.2" cx="46.3369" cy="40.4173" rx="46.3369" ry="40.4173" transform="matrix(-1 0 0 1 1734.67 952)" fill="white"/>
<ellipse opacity="0.2" cx="29.0741" cy="25.3599" rx="29.0741" ry="25.3599" transform="matrix(-1 0 0 1 719.148 978)" fill="white"/>
</svg>