<svg width="248" height="38" viewBox="0 0 248 38" fill="none" xmlns="http://www.w3.org/2000/svg">
<mask id="path-1-outside-1_1116_1567" maskUnits="userSpaceOnUse" x="-1" y="-1" width="251" height="40" fill="black">
<rect fill="white" x="-1" y="-1" width="251" height="40"/>
<path d="M23.65 2.5V23.35C23.65 24.75 23.65 25.85 23.5 27.8C23.15 33.65 19.55 37.7 11.85 37.7C4.7 37.7 0.9 33.5 0.7 26.8L0.65 24.9H6.15L6.25 26.8C6.5 31.5 8.65 33.5 12.35 33.5C16 33.5 17.8 31.2 18.1 27.45C18.15 26.4 18.15 25.2 18.15 23.6V2.5H23.65ZM45.168 37L44.668 33.15L43.318 36C41.518 37.25 39.218 37.7 36.718 37.7C32.018 37.7 28.168 35 28.168 30.05C28.168 24.15 32.868 20.95 42.918 20.95H44.618V20.3C44.618 19.3 44.618 18.4 44.518 17.4C44.368 15.25 43.018 13.75 39.868 13.75C36.668 13.75 35.018 15.55 34.718 18.85H29.218C29.568 13.05 33.918 9.75 39.968 9.75C46.818 9.75 49.518 12.65 49.968 17.15C50.068 18.25 50.118 19.65 50.118 20.9V30.25C50.118 32.25 50.218 34.05 50.618 37H45.168ZM38.718 33.7C42.168 33.7 44.618 31.35 44.618 27.05V24.6C38.168 24.1 33.968 25.55 33.968 29.6C33.968 32.4 35.818 33.7 38.718 33.7ZM67.9641 9.75C74.6641 9.75 78.9141 13.8 79.5641 19.65H74.0141C73.2141 15.6 71.0641 13.75 67.8141 13.75C63.9641 13.75 60.9141 16.8 60.9141 23.45C60.9141 30.65 63.9141 33.7 67.6141 33.7C70.7641 33.7 73.0141 31.8 73.8141 28.2H79.4141C78.1641 34.55 73.5641 37.7 67.3141 37.7C60.3641 37.7 55.1141 33.3 55.1141 23.85C55.1141 14.8 61.0141 9.75 67.9641 9.75ZM92.1613 26.1L89.8113 28.7V37H84.3113V0.249999H89.8113V23.25L101.411 10.45H108.161L96.0613 22.9L108.311 37H101.161L92.1613 26.1ZM150.654 17.3V21.7H145.904V36.55C142.804 37.25 139.254 37.7 135.404 37.7C127.354 37.7 121.604 35.6 121.604 28.3C121.604 23.9 124.704 20.4 129.654 19.4C125.854 18.4 123.204 15.6 123.204 11.65C123.204 5.65 128.204 1.8 135.704 1.8C138.054 1.8 139.704 1.95 141.454 2.3V6.5C139.404 6.1 137.904 6 135.654 6C131.504 6 129.154 8.1 129.154 11.6C129.154 15.75 131.654 17.1 134.904 17.25C135.804 17.3 136.904 17.3 137.954 17.3H140.404V12.15H145.904V17.3H150.654ZM127.554 27.5C127.554 31.95 130.104 33.5 135.504 33.5C137.404 33.5 138.654 33.4 140.404 33.1V21.7H137.754C136.654 21.7 135.804 21.7 134.804 21.75C129.704 22.2 127.554 24.5 127.554 27.5ZM191.161 32.6V37H164.511V32.8L184.511 6.85H165.911V2.5H190.911V6.8L171.061 32.6H191.161ZM211.135 37L210.635 33.15L209.285 36C207.485 37.25 205.185 37.7 202.685 37.7C197.985 37.7 194.135 35 194.135 30.05C194.135 24.15 198.835 20.95 208.885 20.95H210.585V20.3C210.585 19.3 210.585 18.4 210.485 17.4C210.335 15.25 208.985 13.75 205.835 13.75C202.635 13.75 200.985 15.55 200.685 18.85H195.185C195.535 13.05 199.885 9.75 205.935 9.75C212.785 9.75 215.485 12.65 215.935 17.15C216.035 18.25 216.085 19.65 216.085 20.9V30.25C216.085 32.25 216.185 34.05 216.585 37H211.135ZM204.685 33.7C208.135 33.7 210.585 31.35 210.585 27.05V24.6C204.135 24.1 199.935 25.55 199.935 29.6C199.935 32.4 201.785 33.7 204.685 33.7ZM230.931 26.1L228.581 28.7V37H223.081V0.249999H228.581V23.25L240.181 10.45H246.931L234.831 22.9L247.081 37H239.931L230.931 26.1Z"/>
</mask>
<path d="M23.65 2.5V23.35C23.65 24.75 23.65 25.85 23.5 27.8C23.15 33.65 19.55 37.7 11.85 37.7C4.7 37.7 0.9 33.5 0.7 26.8L0.65 24.9H6.15L6.25 26.8C6.5 31.5 8.65 33.5 12.35 33.5C16 33.5 17.8 31.2 18.1 27.45C18.15 26.4 18.15 25.2 18.15 23.6V2.5H23.65ZM45.168 37L44.668 33.15L43.318 36C41.518 37.25 39.218 37.7 36.718 37.7C32.018 37.7 28.168 35 28.168 30.05C28.168 24.15 32.868 20.95 42.918 20.95H44.618V20.3C44.618 19.3 44.618 18.4 44.518 17.4C44.368 15.25 43.018 13.75 39.868 13.75C36.668 13.75 35.018 15.55 34.718 18.85H29.218C29.568 13.05 33.918 9.75 39.968 9.75C46.818 9.75 49.518 12.65 49.968 17.15C50.068 18.25 50.118 19.65 50.118 20.9V30.25C50.118 32.25 50.218 34.05 50.618 37H45.168ZM38.718 33.7C42.168 33.7 44.618 31.35 44.618 27.05V24.6C38.168 24.1 33.968 25.55 33.968 29.6C33.968 32.4 35.818 33.7 38.718 33.7ZM67.9641 9.75C74.6641 9.75 78.9141 13.8 79.5641 19.65H74.0141C73.2141 15.6 71.0641 13.75 67.8141 13.75C63.9641 13.75 60.9141 16.8 60.9141 23.45C60.9141 30.65 63.9141 33.7 67.6141 33.7C70.7641 33.7 73.0141 31.8 73.8141 28.2H79.4141C78.1641 34.55 73.5641 37.7 67.3141 37.7C60.3641 37.7 55.1141 33.3 55.1141 23.85C55.1141 14.8 61.0141 9.75 67.9641 9.75ZM92.1613 26.1L89.8113 28.7V37H84.3113V0.249999H89.8113V23.25L101.411 10.45H108.161L96.0613 22.9L108.311 37H101.161L92.1613 26.1ZM150.654 17.3V21.7H145.904V36.55C142.804 37.25 139.254 37.7 135.404 37.7C127.354 37.7 121.604 35.6 121.604 28.3C121.604 23.9 124.704 20.4 129.654 19.4C125.854 18.4 123.204 15.6 123.204 11.65C123.204 5.65 128.204 1.8 135.704 1.8C138.054 1.8 139.704 1.95 141.454 2.3V6.5C139.404 6.1 137.904 6 135.654 6C131.504 6 129.154 8.1 129.154 11.6C129.154 15.75 131.654 17.1 134.904 17.25C135.804 17.3 136.904 17.3 137.954 17.3H140.404V12.15H145.904V17.3H150.654ZM127.554 27.5C127.554 31.95 130.104 33.5 135.504 33.5C137.404 33.5 138.654 33.4 140.404 33.1V21.7H137.754C136.654 21.7 135.804 21.7 134.804 21.75C129.704 22.2 127.554 24.5 127.554 27.5ZM191.161 32.6V37H164.511V32.8L184.511 6.85H165.911V2.5H190.911V6.8L171.061 32.6H191.161ZM211.135 37L210.635 33.15L209.285 36C207.485 37.25 205.185 37.7 202.685 37.7C197.985 37.7 194.135 35 194.135 30.05C194.135 24.15 198.835 20.95 208.885 20.95H210.585V20.3C210.585 19.3 210.585 18.4 210.485 17.4C210.335 15.25 208.985 13.75 205.835 13.75C202.635 13.75 200.985 15.55 200.685 18.85H195.185C195.535 13.05 199.885 9.75 205.935 9.75C212.785 9.75 215.485 12.65 215.935 17.15C216.035 18.25 216.085 19.65 216.085 20.9V30.25C216.085 32.25 216.185 34.05 216.585 37H211.135ZM204.685 33.7C208.135 33.7 210.585 31.35 210.585 27.05V24.6C204.135 24.1 199.935 25.55 199.935 29.6C199.935 32.4 201.785 33.7 204.685 33.7ZM230.931 26.1L228.581 28.7V37H223.081V0.249999H228.581V23.25L240.181 10.45H246.931L234.831 22.9L247.081 37H239.931L230.931 26.1Z" fill="#E36D51"/>
<path d="M23.65 2.5H24.65V1.5H23.65V2.5ZM23.5 27.8L22.5029 27.7233L22.5023 27.7318L22.5018 27.7403L23.5 27.8ZM0.7 26.8L-0.29966 26.8263L-0.299555 26.8298L0.7 26.8ZM0.65 24.9V23.9H-0.376662L-0.349654 24.9263L0.65 24.9ZM6.15 24.9L7.14862 24.8474L7.09875 23.9H6.15V24.9ZM6.25 26.8L5.25138 26.8526L5.25141 26.8531L6.25 26.8ZM18.1 27.45L19.0968 27.5297L19.0981 27.5137L19.0989 27.4976L18.1 27.45ZM18.15 2.5V1.5H17.15V2.5H18.15ZM22.65 2.5V23.35H24.65V2.5H22.65ZM22.65 23.35C22.65 24.7418 22.65 25.8117 22.5029 27.7233L24.4971 27.8767C24.65 25.8883 24.65 24.7582 24.65 23.35H22.65ZM22.5018 27.7403C22.3382 30.4752 21.4249 32.6795 19.7563 34.2059C18.085 35.7348 15.5284 36.7 11.85 36.7V38.7C15.8716 38.7 18.965 37.6402 21.1062 35.6816C23.2501 33.7205 24.3118 30.9748 24.4982 27.8597L22.5018 27.7403ZM11.85 36.7C8.47338 36.7 6.01701 35.713 4.37938 34.0589C2.73556 32.3986 1.79425 29.9425 1.69955 26.7702L-0.299555 26.8298C-0.194252 30.3575 0.864445 33.3514 2.95812 35.4661C5.05799 37.587 8.07662 38.7 11.85 38.7V36.7ZM1.69965 26.7737L1.64965 24.8737L-0.349654 24.9263L-0.299654 26.8263L1.69965 26.7737ZM0.65 25.9H6.15V23.9H0.65V25.9ZM5.15138 24.9526L5.25138 26.8526L7.24862 26.7474L7.14862 24.8474L5.15138 24.9526ZM5.25141 26.8531C5.38309 29.3287 6.02246 31.2738 7.28063 32.6006C8.55712 33.9467 10.3201 34.5 12.35 34.5V32.5C10.6799 32.5 9.51788 32.0533 8.73187 31.2244C7.92754 30.3762 7.36691 28.9713 7.24859 26.7469L5.25141 26.8531ZM12.35 34.5C14.4 34.5 16.0542 33.8446 17.223 32.5519C18.3672 31.2865 18.9367 29.5307 19.0968 27.5297L17.1032 27.3703C16.9633 29.1193 16.4828 30.3885 15.7395 31.2106C15.0208 32.0054 13.95 32.5 12.35 32.5V34.5ZM19.0989 27.4976C19.1502 26.4186 19.15 25.1919 19.15 23.6H17.15C17.15 25.2081 17.1498 26.3814 17.1011 27.4024L19.0989 27.4976ZM19.15 23.6V2.5H17.15V23.6H19.15ZM18.15 3.5H23.65V1.5H18.15V3.5ZM45.168 37L44.1763 37.1288L44.2894 38H45.168V37ZM44.668 33.15L45.6596 33.0212L45.2213 29.6459L43.7642 32.7219L44.668 33.15ZM43.318 36L43.8884 36.8214L44.1075 36.6692L44.2217 36.4281L43.318 36ZM44.618 20.95V21.95H45.618V20.95H44.618ZM44.518 17.4L43.5204 17.4696L43.5214 17.4846L43.5229 17.4995L44.518 17.4ZM34.718 18.85V19.85H35.6312L35.7139 18.9405L34.718 18.85ZM29.218 18.85L28.2198 18.7898L28.1558 19.85H29.218V18.85ZM49.968 17.15L50.9639 17.0595L50.963 17.0505L49.968 17.15ZM50.618 37V38H51.7627L51.6089 36.8656L50.618 37ZM44.618 24.6H45.618V23.6745L44.6953 23.603L44.618 24.6ZM46.1596 36.8712L45.6596 33.0212L43.6763 33.2788L44.1763 37.1288L46.1596 36.8712ZM43.7642 32.7219L42.4142 35.5719L44.2217 36.4281L45.5717 33.5781L43.7642 32.7219ZM42.7476 35.1786C41.1832 36.265 39.1167 36.7 36.718 36.7V38.7C39.3192 38.7 41.8528 38.235 43.8884 36.8214L42.7476 35.1786ZM36.718 36.7C34.5502 36.7 32.6552 36.077 31.3213 34.9635C30.0084 33.8677 29.168 32.2411 29.168 30.05H27.168C27.168 32.8089 28.2526 35.0073 30.0397 36.499C31.8057 37.973 34.1858 38.7 36.718 38.7V36.7ZM29.168 30.05C29.168 27.4169 30.1886 25.4734 32.3087 24.1327C34.5048 22.7439 37.9674 21.95 42.918 21.95V19.95C37.8186 19.95 33.9061 20.7561 31.2397 22.4423C28.4973 24.1766 27.168 26.7831 27.168 30.05H29.168ZM42.918 21.95H44.618V19.95H42.918V21.95ZM45.618 20.95V20.3H43.618V20.95H45.618ZM45.618 20.3C45.618 19.3056 45.6187 18.3574 45.513 17.3005L43.5229 17.4995C43.6172 18.4426 43.618 19.2944 43.618 20.3H45.618ZM45.5155 17.3304C45.427 16.0607 44.9712 14.8699 43.9693 14.0099C42.9795 13.1603 41.5915 12.75 39.868 12.75V14.75C41.2944 14.75 42.1565 15.0896 42.6667 15.5276C43.1648 15.9551 43.459 16.5893 43.5204 17.4696L45.5155 17.3304ZM39.868 12.75C38.0759 12.75 36.5783 13.2595 35.4932 14.3606C34.4242 15.4453 33.8843 16.9746 33.7221 18.7595L35.7139 18.9405C35.8516 17.4254 36.2868 16.4047 36.9177 15.7644C37.5326 15.1405 38.4601 14.75 39.868 14.75V12.75ZM34.718 17.85H29.218V19.85H34.718V17.85ZM30.2162 18.9102C30.3758 16.2644 31.4352 14.2568 33.0901 12.8978C34.76 11.5265 37.1189 10.75 39.968 10.75V8.75C36.7671 8.75 33.9259 9.62353 31.8208 11.3522C29.7007 13.0932 28.4101 15.6356 28.2198 18.7898L30.2162 18.9102ZM39.968 10.75C43.2689 10.75 45.3962 11.4509 46.7381 12.5392C48.0591 13.6106 48.7658 15.1778 48.9729 17.2495L50.963 17.0505C50.7202 14.6222 49.8518 12.4894 47.9979 10.9858C46.1647 9.49912 43.517 8.75 39.968 8.75V10.75ZM48.9721 17.2405C49.0686 18.3024 49.118 19.6709 49.118 20.9H51.118C51.118 19.6291 51.0673 18.1976 50.9639 17.0595L48.9721 17.2405ZM49.118 20.9V30.25H51.118V20.9H49.118ZM49.118 30.25C49.118 32.2984 49.2215 34.1434 49.627 37.1344L51.6089 36.8656C51.2145 33.9566 51.118 32.2016 51.118 30.25H49.118ZM50.618 36H45.168V38H50.618V36ZM38.718 34.7C40.6776 34.7 42.4341 34.0265 43.6948 32.6676C44.9496 31.3152 45.618 29.3875 45.618 27.05H43.618C43.618 29.0125 43.0613 30.4098 42.2286 31.3074C41.4019 32.1985 40.2084 32.7 38.718 32.7V34.7ZM45.618 27.05V24.6H43.618V27.05H45.618ZM44.6953 23.603C41.4124 23.3485 38.5551 23.5734 36.4758 24.4765C35.4215 24.9345 34.5326 25.5821 33.9092 26.4615C33.2808 27.348 32.968 28.4059 32.968 29.6H34.968C34.968 28.7691 35.1801 28.127 35.5408 27.6181C35.9065 27.1023 36.4707 26.6593 37.2726 26.311C38.9058 25.6016 41.3736 25.3515 44.5407 25.597L44.6953 23.603ZM32.968 29.6C32.968 31.2364 33.52 32.5721 34.6222 33.474C35.6908 34.3483 37.1379 34.7 38.718 34.7V32.7C37.398 32.7 36.4701 32.4017 35.8887 31.926C35.3409 31.4779 34.968 30.7636 34.968 29.6H32.968ZM79.5641 19.65V20.65H80.6813L80.5579 19.5396L79.5641 19.65ZM74.0141 19.65L73.033 19.8438L73.1923 20.65H74.0141V19.65ZM73.8141 28.2V27.2H73.0119L72.8379 27.9831L73.8141 28.2ZM79.4141 28.2L80.3952 28.3931L80.6301 27.2H79.4141V28.2ZM67.9641 10.75C71.1081 10.75 73.5996 11.6969 75.3721 13.2569C77.1449 14.8172 78.2693 17.0528 78.5702 19.7604L80.5579 19.5396C80.2088 16.3972 78.8832 13.6828 76.6935 11.7556C74.5035 9.82812 71.52 8.75 67.9641 8.75V10.75ZM79.5641 18.65H74.0141V20.65H79.5641V18.65ZM74.9951 19.4562C74.5696 17.3021 73.7609 15.6064 72.5131 14.4483C71.2493 13.2753 69.6391 12.75 67.8141 12.75V14.75C69.239 14.75 70.3288 15.1497 71.1525 15.9142C71.9922 16.6936 72.6585 17.9479 73.033 19.8438L74.9951 19.4562ZM67.8141 12.75C65.6017 12.75 63.5776 13.6386 62.132 15.491C60.7071 17.3169 59.9141 19.986 59.9141 23.45H61.9141C61.9141 20.264 62.6461 18.0831 63.7087 16.7215C64.7506 15.3864 66.1764 14.75 67.8141 14.75V12.75ZM59.9141 23.45C59.9141 27.1706 60.6866 29.9693 62.0686 31.8643C63.4772 33.7957 65.4582 34.7 67.6141 34.7V32.7C66.0699 32.7 64.7009 32.0793 63.6845 30.6857C62.6416 29.2557 61.9141 26.9294 61.9141 23.45H59.9141ZM67.6141 34.7C69.4 34.7 70.9932 34.1565 72.2541 33.0523C73.5068 31.9553 74.3558 30.3719 74.7903 28.4169L72.8379 27.9831C72.4723 29.6281 71.7963 30.7947 70.9365 31.5477C70.0849 32.2935 68.9781 32.7 67.6141 32.7V34.7ZM73.8141 29.2H79.4141V27.2H73.8141V29.2ZM78.4329 28.0069C77.8487 30.9745 76.5016 33.1204 74.6353 34.5341C72.7594 35.955 70.2739 36.7 67.3141 36.7V38.7C70.6042 38.7 73.5437 37.87 75.8429 36.1284C78.1516 34.3796 79.7294 31.7755 80.3952 28.3931L78.4329 28.0069ZM67.3141 36.7C64.0518 36.7 61.2852 35.6719 59.3306 33.6277C57.3732 31.5805 56.1141 28.3927 56.1141 23.85H54.1141C54.1141 28.7573 55.48 32.4945 57.885 35.0098C60.2929 37.5281 63.6263 38.7 67.3141 38.7V36.7ZM56.1141 23.85C56.1141 19.5492 57.5112 16.2876 59.6473 14.1059C61.7871 11.9204 64.7344 10.75 67.9641 10.75V8.75C64.2437 8.75 60.766 10.1046 58.2183 12.7066C55.667 15.3124 54.1141 19.1008 54.1141 23.85H56.1141ZM92.1613 26.1L92.9324 25.4633L92.1955 24.5708L91.4195 25.4295L92.1613 26.1ZM89.8113 28.7L89.0695 28.0295L88.8113 28.315V28.7H89.8113ZM89.8113 37V38H90.8113V37H89.8113ZM84.3113 37H83.3113V38H84.3113V37ZM84.3113 0.249999V-0.750001H83.3113V0.249999H84.3113ZM89.8113 0.249999H90.8113V-0.750001H89.8113V0.249999ZM89.8113 23.25H88.8113V25.8426L90.5523 23.9215L89.8113 23.25ZM101.411 10.45V9.45H100.968L100.67 9.77848L101.411 10.45ZM108.161 10.45L108.878 11.147L110.528 9.45H108.161V10.45ZM96.0613 22.9L95.3442 22.203L94.7037 22.8621L95.3064 23.5558L96.0613 22.9ZM108.311 37V38H110.505L109.066 36.3442L108.311 37ZM101.161 37L100.39 37.6367L100.69 38H101.161V37ZM91.4195 25.4295L89.0695 28.0295L90.5532 29.3705L92.9032 26.7705L91.4195 25.4295ZM88.8113 28.7V37H90.8113V28.7H88.8113ZM89.8113 36H84.3113V38H89.8113V36ZM85.3113 37V0.249999H83.3113V37H85.3113ZM84.3113 1.25H89.8113V-0.750001H84.3113V1.25ZM88.8113 0.249999V23.25H90.8113V0.249999H88.8113ZM90.5523 23.9215L102.152 11.1215L100.67 9.77848L89.0703 22.5785L90.5523 23.9215ZM101.411 11.45H108.161V9.45H101.411V11.45ZM107.444 9.75304L95.3442 22.203L96.7784 23.597L108.878 11.147L107.444 9.75304ZM95.3064 23.5558L107.556 37.6558L109.066 36.3442L96.8162 22.2442L95.3064 23.5558ZM108.311 36H101.161V38H108.311V36ZM101.932 36.3633L92.9324 25.4633L91.3902 26.7367L100.39 37.6367L101.932 36.3633ZM150.654 17.3H151.654V16.3H150.654V17.3ZM150.654 21.7V22.7H151.654V21.7H150.654ZM145.904 21.7V20.7H144.904V21.7H145.904ZM145.904 36.55L146.125 37.5254L146.904 37.3494V36.55H145.904ZM129.654 19.4L129.852 20.3802L129.909 18.4329L129.654 19.4ZM141.454 2.3H142.454V1.4802L141.65 1.31942L141.454 2.3ZM141.454 6.5L141.263 7.48149L142.454 7.71398V6.5H141.454ZM134.904 17.25L134.96 16.2515L134.95 16.2511L134.904 17.25ZM140.404 17.3V18.3H141.404V17.3H140.404ZM140.404 12.15V11.15H139.404V12.15H140.404ZM145.904 12.15H146.904V11.15H145.904V12.15ZM145.904 17.3H144.904V18.3H145.904V17.3ZM140.404 33.1L140.573 34.0856L141.404 33.9432V33.1H140.404ZM140.404 21.7H141.404V20.7H140.404V21.7ZM134.804 21.75L134.754 20.7512L134.735 20.7522L134.716 20.7539L134.804 21.75ZM149.654 17.3V21.7H151.654V17.3H149.654ZM150.654 20.7H145.904V22.7H150.654V20.7ZM144.904 21.7V36.55H146.904V21.7H144.904ZM145.684 35.5746C142.653 36.2589 139.177 36.7 135.404 36.7V38.7C139.332 38.7 142.955 38.2411 146.125 37.5254L145.684 35.5746ZM135.404 36.7C131.428 36.7 128.2 36.174 125.993 34.8756C123.883 33.6344 122.604 31.6297 122.604 28.3H120.604C120.604 32.2703 122.201 34.9656 124.979 36.5994C127.659 38.176 131.331 38.7 135.404 38.7V36.7ZM122.604 28.3C122.604 24.454 125.288 21.3023 129.852 20.3802L129.456 18.4198C124.121 19.4977 120.604 23.346 120.604 28.3H122.604ZM129.909 18.4329C126.455 17.5241 124.204 15.0565 124.204 11.65H122.204C122.204 16.1435 125.253 19.2759 129.4 20.3671L129.909 18.4329ZM124.204 11.65C124.204 8.95658 125.314 6.78481 127.258 5.26241C129.226 3.72198 132.115 2.8 135.704 2.8V0.799997C131.794 0.799997 128.433 1.80302 126.025 3.68759C123.595 5.59018 122.204 8.34341 122.204 11.65H124.204ZM135.704 2.8C138.004 2.8 139.587 2.94624 141.258 3.28058L141.65 1.31942C139.822 0.953753 138.104 0.799997 135.704 0.799997V2.8ZM140.454 2.3V6.5H142.454V2.3H140.454ZM141.646 5.51851C139.515 5.10279 137.948 5 135.654 5V7C137.861 7 139.293 7.09721 141.263 7.48149L141.646 5.51851ZM135.654 5C133.422 5 131.534 5.56484 130.192 6.73308C128.83 7.91787 128.154 9.61392 128.154 11.6H130.154C130.154 10.0861 130.654 8.98213 131.504 8.24192C132.374 7.48516 133.737 7 135.654 7V5ZM128.154 11.6C128.154 13.8866 128.853 15.5751 130.164 16.6875C131.436 17.7676 133.132 18.1693 134.858 18.2489L134.95 16.2511C133.426 16.1807 132.247 15.8324 131.458 15.1625C130.706 14.5249 130.154 13.4634 130.154 11.6H128.154ZM134.849 18.2485C135.782 18.3003 136.913 18.3 137.954 18.3V16.3C136.896 16.3 135.826 16.2997 134.96 16.2515L134.849 18.2485ZM137.954 18.3H140.404V16.3H137.954V18.3ZM141.404 17.3V12.15H139.404V17.3H141.404ZM140.404 13.15H145.904V11.15H140.404V13.15ZM144.904 12.15V17.3H146.904V12.15H144.904ZM145.904 18.3H150.654V16.3H145.904V18.3ZM126.554 27.5C126.554 29.9237 127.261 31.7871 128.921 32.9807C130.499 34.1155 132.756 34.5 135.504 34.5V32.5C132.853 32.5 131.135 32.1095 130.088 31.3568C129.123 30.6629 128.554 29.5263 128.554 27.5H126.554ZM135.504 34.5C137.456 34.5 138.763 34.396 140.573 34.0856L140.235 32.1144C138.546 32.404 137.353 32.5 135.504 32.5V34.5ZM141.404 33.1V21.7H139.404V33.1H141.404ZM140.404 20.7H137.754V22.7H140.404V20.7ZM137.754 20.7C136.657 20.7 135.783 20.6998 134.754 20.7512L134.854 22.7488C135.826 22.7002 136.651 22.7 137.754 22.7V20.7ZM134.716 20.7539C132.046 20.9895 130.005 21.7199 128.616 22.9092C127.198 24.124 126.554 25.7377 126.554 27.5H128.554C128.554 26.2623 128.986 25.226 129.917 24.4283C130.878 23.6051 132.463 22.9605 134.892 22.7461L134.716 20.7539ZM191.161 32.6H192.161V31.6H191.161V32.6ZM191.161 37V38H192.161V37H191.161ZM164.511 37H163.511V38H164.511V37ZM164.511 32.8L163.719 32.1896L163.511 32.4594V32.8H164.511ZM184.511 6.85L185.303 7.46045L186.545 5.85H184.511V6.85ZM165.911 6.85H164.911V7.85H165.911V6.85ZM165.911 2.5V1.5H164.911V2.5H165.911ZM190.911 2.5H191.911V1.5H190.911V2.5ZM190.911 6.8L191.704 7.40978L191.911 7.14017V6.8H190.911ZM171.061 32.6L170.269 31.9902L169.03 33.6H171.061V32.6ZM190.161 32.6V37H192.161V32.6H190.161ZM191.161 36H164.511V38H191.161V36ZM165.511 37V32.8H163.511V37H165.511ZM165.303 33.4104L185.303 7.46045L183.719 6.23955L163.719 32.1896L165.303 33.4104ZM184.511 5.85H165.911V7.85H184.511V5.85ZM166.911 6.85V2.5H164.911V6.85H166.911ZM165.911 3.5H190.911V1.5H165.911V3.5ZM189.911 2.5V6.8H191.911V2.5H189.911ZM190.119 6.19021L170.269 31.9902L171.854 33.2098L191.704 7.40978L190.119 6.19021ZM171.061 33.6H191.161V31.6H171.061V33.6ZM211.135 37L210.143 37.1288L210.256 38H211.135V37ZM210.635 33.15L211.626 33.0212L211.188 29.6459L209.731 32.7219L210.635 33.15ZM209.285 36L209.855 36.8214L210.074 36.6692L210.189 36.4281L209.285 36ZM210.585 20.95V21.95H211.585V20.95H210.585ZM210.485 17.4L209.487 17.4696L209.488 17.4846L209.49 17.4995L210.485 17.4ZM200.685 18.85V19.85H201.598L201.681 18.9405L200.685 18.85ZM195.185 18.85L194.187 18.7898L194.123 19.85H195.185V18.85ZM215.935 17.15L216.931 17.0595L216.93 17.0505L215.935 17.15ZM216.585 37V38H217.73L217.576 36.8656L216.585 37ZM210.585 24.6H211.585V23.6745L210.662 23.603L210.585 24.6ZM212.126 36.8712L211.626 33.0212L209.643 33.2788L210.143 37.1288L212.126 36.8712ZM209.731 32.7219L208.381 35.5719L210.189 36.4281L211.539 33.5781L209.731 32.7219ZM208.714 35.1786C207.15 36.265 205.084 36.7 202.685 36.7V38.7C205.286 38.7 207.82 38.235 209.855 36.8214L208.714 35.1786ZM202.685 36.7C200.517 36.7 198.622 36.077 197.288 34.9635C195.975 33.8677 195.135 32.2411 195.135 30.05H193.135C193.135 32.8089 194.219 35.0073 196.006 36.499C197.773 37.973 200.153 38.7 202.685 38.7V36.7ZM195.135 30.05C195.135 27.4169 196.155 25.4734 198.275 24.1327C200.472 22.7439 203.934 21.95 208.885 21.95V19.95C203.785 19.95 199.873 20.7561 197.207 22.4423C194.464 24.1766 193.135 26.7831 193.135 30.05H195.135ZM208.885 21.95H210.585V19.95H208.885V21.95ZM211.585 20.95V20.3H209.585V20.95H211.585ZM211.585 20.3C211.585 19.3056 211.585 18.3574 211.48 17.3005L209.49 17.4995C209.584 18.4426 209.585 19.2944 209.585 20.3H211.585ZM211.482 17.3304C211.394 16.0607 210.938 14.8699 209.936 14.0099C208.946 13.1603 207.558 12.75 205.835 12.75V14.75C207.261 14.75 208.123 15.0896 208.633 15.5276C209.132 15.9551 209.426 16.5893 209.487 17.4696L211.482 17.3304ZM205.835 12.75C204.043 12.75 202.545 13.2595 201.46 14.3606C200.391 15.4453 199.851 16.9746 199.689 18.7595L201.681 18.9405C201.818 17.4254 202.254 16.4047 202.885 15.7644C203.499 15.1405 204.427 14.75 205.835 14.75V12.75ZM200.685 17.85H195.185V19.85H200.685V17.85ZM196.183 18.9102C196.343 16.2644 197.402 14.2568 199.057 12.8978C200.727 11.5265 203.086 10.75 205.935 10.75V8.75C202.734 8.75 199.893 9.62353 197.788 11.3522C195.668 13.0932 194.377 15.6356 194.187 18.7898L196.183 18.9102ZM205.935 10.75C209.236 10.75 211.363 11.4509 212.705 12.5392C214.026 13.6106 214.733 15.1778 214.94 17.2495L216.93 17.0505C216.687 14.6222 215.819 12.4894 213.965 10.9858C212.132 9.49912 209.484 8.75 205.935 8.75V10.75ZM214.939 17.2405C215.035 18.3024 215.085 19.6709 215.085 20.9H217.085C217.085 19.6291 217.034 18.1976 216.931 17.0595L214.939 17.2405ZM215.085 20.9V30.25H217.085V20.9H215.085ZM215.085 30.25C215.085 32.2984 215.188 34.1434 215.594 37.1344L217.576 36.8656C217.181 33.9566 217.085 32.2016 217.085 30.25H215.085ZM216.585 36H211.135V38H216.585V36ZM204.685 34.7C206.644 34.7 208.401 34.0265 209.662 32.6676C210.916 31.3152 211.585 29.3875 211.585 27.05H209.585C209.585 29.0125 209.028 30.4098 208.195 31.3074C207.369 32.1985 206.175 32.7 204.685 32.7V34.7ZM211.585 27.05V24.6H209.585V27.05H211.585ZM210.662 23.603C207.379 23.3485 204.522 23.5734 202.443 24.4765C201.388 24.9345 200.499 25.5821 199.876 26.4615C199.248 27.348 198.935 28.4059 198.935 29.6H200.935C200.935 28.7691 201.147 28.127 201.508 27.6181C201.873 27.1023 202.437 26.6593 203.239 26.311C204.873 25.6016 207.34 25.3515 210.507 25.597L210.662 23.603ZM198.935 29.6C198.935 31.2364 199.487 32.5721 200.589 33.474C201.658 34.3483 203.105 34.7 204.685 34.7V32.7C203.365 32.7 202.437 32.4017 201.856 31.926C201.308 31.4779 200.935 30.7636 200.935 29.6H198.935ZM230.931 26.1L231.702 25.4633L230.965 24.5708L230.189 25.4295L230.931 26.1ZM228.581 28.7L227.839 28.0295L227.581 28.315V28.7H228.581ZM228.581 37V38H229.581V37H228.581ZM223.081 37H222.081V38H223.081V37ZM223.081 0.249999V-0.750001H222.081V0.249999H223.081ZM228.581 0.249999H229.581V-0.750001H228.581V0.249999ZM228.581 23.25H227.581V25.8426L229.322 23.9215L228.581 23.25ZM240.181 10.45V9.45H239.738L239.44 9.77848L240.181 10.45ZM246.931 10.45L247.648 11.147L249.297 9.45H246.931V10.45ZM234.831 22.9L234.114 22.203L233.473 22.8621L234.076 23.5558L234.831 22.9ZM247.081 37V38H249.274L247.836 36.3442L247.081 37ZM239.931 37L239.16 37.6367L239.46 38H239.931V37ZM230.189 25.4295L227.839 28.0295L229.323 29.3705L231.673 26.7705L230.189 25.4295ZM227.581 28.7V37H229.581V28.7H227.581ZM228.581 36H223.081V38H228.581V36ZM224.081 37V0.249999H222.081V37H224.081ZM223.081 1.25H228.581V-0.750001H223.081V1.25ZM227.581 0.249999V23.25H229.581V0.249999H227.581ZM229.322 23.9215L240.922 11.1215L239.44 9.77848L227.84 22.5785L229.322 23.9215ZM240.181 11.45H246.931V9.45H240.181V11.45ZM246.214 9.75304L234.114 22.203L235.548 23.597L247.648 11.147L246.214 9.75304ZM234.076 23.5558L246.326 37.6558L247.836 36.3442L235.586 22.2442L234.076 23.5558ZM247.081 36H239.931V38H247.081V36ZM240.702 36.3633L231.702 25.4633L230.16 26.7367L239.16 37.6367L240.702 36.3633Z" fill="black" mask="url(#path-1-outside-1_1116_1567)"/>
</svg>
